<svg width="601" height="395" viewBox="0 0 601 395" fill="none" xmlns="http://www.w3.org/2000/svg">
<path d="M36.2941 1H1V33.7381M36.2941 1V33.7381M36.2941 1H71.5882M36.2941 33.7381H1M36.2941 33.7381H71.5882M36.2941 33.7381V66.4762M1 33.7381V66.4762M71.5882 1V33.7381M71.5882 1H106.882M71.5882 33.7381H106.882M71.5882 33.7381V66.4762M106.882 1V33.7381M106.882 1H142.176M106.882 33.7381H142.176M106.882 33.7381V66.4762M142.176 1V33.7381M142.176 1H177.471M142.176 33.7381H177.471M142.176 33.7381V66.4762M177.471 1V33.7381M177.471 1H212.765M177.471 33.7381H212.765M177.471 33.7381V66.4762M212.765 1V33.7381M212.765 1H248.059M212.765 33.7381H248.059M212.765 33.7381V66.4762M248.059 1V33.7381M248.059 1H283.353M248.059 33.7381H283.353M248.059 33.7381V66.4762M283.353 1V33.7381M283.353 1H318.647M283.353 33.7381H318.647M283.353 33.7381V66.4762M318.647 1V33.7381M318.647 1H353.941M318.647 33.7381H353.941M318.647 33.7381V66.4762M353.941 1V33.7381M353.941 1H389.235M353.941 33.7381H389.235M353.941 33.7381V66.4762M389.235 1V33.7381M389.235 1H424.529M389.235 33.7381H424.529M389.235 33.7381V66.4762M424.529 1V33.7381M424.529 1H459.824M424.529 33.7381H459.824M424.529 33.7381V66.4762M459.824 1V33.7381M459.824 1H495.118M459.824 33.7381H495.118M459.824 33.7381V66.4762M495.118 1V33.7381M495.118 1H530.412M495.118 33.7381H530.412M495.118 33.7381V66.4762M530.412 1V33.7381M530.412 1H565.706M530.412 33.7381H565.706M530.412 33.7381V66.4762M565.706 1V33.7381M565.706 1H601V33.7381M565.706 33.7381H601M565.706 33.7381V66.4762M601 33.7381V66.4762M36.2941 66.4762H1M36.2941 66.4762H71.5882M36.2941 66.4762V99.2143M1 66.4762V99.2143M71.5882 66.4762H106.882M71.5882 66.4762V99.2143M106.882 66.4762H142.176M106.882 66.4762V99.2143M142.176 66.4762H177.471M142.176 66.4762V99.2143M177.471 66.4762H212.765M177.471 66.4762V99.2143M212.765 66.4762H248.059M212.765 66.4762V99.2143M248.059 66.4762H283.353M248.059 66.4762V99.2143M283.353 66.4762H318.647M283.353 66.4762V99.2143M318.647 66.4762H353.941M318.647 66.4762V99.2143M353.941 66.4762H389.235M353.941 66.4762V99.2143M389.235 66.4762H424.529M389.235 66.4762V99.2143M424.529 66.4762H459.824M424.529 66.4762V99.2143M459.824 66.4762H495.118M459.824 66.4762V99.2143M495.118 66.4762H530.412M495.118 66.4762V99.2143M530.412 66.4762H565.706M530.412 66.4762V99.2143M565.706 66.4762H601M565.706 66.4762V99.2143M601 66.4762V99.2143M36.2941 99.2143H1M36.2941 99.2143H71.5882M36.2941 99.2143V131.952M1 99.2143V131.952M71.5882 99.2143H106.882M71.5882 99.2143V131.952M106.882 99.2143H142.176M106.882 99.2143V131.952M142.176 99.2143H177.471M142.176 99.2143V131.952M177.471 99.2143H212.765M177.471 99.2143V131.952M212.765 99.2143H248.059M212.765 99.2143V131.952M248.059 99.2143H283.353M248.059 99.2143V131.952M283.353 99.2143H318.647M283.353 99.2143V131.952M318.647 99.2143H353.941M318.647 99.2143V131.952M353.941 99.2143H389.235M353.941 99.2143V131.952M389.235 99.2143H424.529M389.235 99.2143V131.952M424.529 99.2143H459.824M424.529 99.2143V131.952M459.824 99.2143H495.118M459.824 99.2143V131.952M495.118 99.2143H530.412M495.118 99.2143V131.952M530.412 99.2143H565.706M530.412 99.2143V131.952M565.706 99.2143H601M565.706 99.2143V131.952M601 99.2143V131.952M36.2941 131.952H1M36.2941 131.952H71.5882M36.2941 131.952V164.69M1 131.952V164.69M71.5882 131.952H106.882M71.5882 131.952V164.69M106.882 131.952H142.176M106.882 131.952V164.69M142.176 131.952H177.471M142.176 131.952V164.69M177.471 131.952H212.765M177.471 131.952V164.69M212.765 131.952H248.059M212.765 131.952V164.69M248.059 131.952H283.353M248.059 131.952V164.69M283.353 131.952H318.647M283.353 131.952V164.69M318.647 131.952H353.941M318.647 131.952V164.69M353.941 131.952H389.235M353.941 131.952V164.69M389.235 131.952H424.529M389.235 131.952V164.69M424.529 131.952H459.824M424.529 131.952V164.69M459.824 131.952H495.118M459.824 131.952V164.69M495.118 131.952H530.412M495.118 131.952V164.69M530.412 131.952H565.706M530.412 131.952V164.69M565.706 131.952H601M565.706 131.952V164.69M601 131.952V164.69M36.2941 164.69H1M36.2941 164.69H71.5882M36.2941 164.69V197.429M1 164.69V197.429M71.5882 164.69H106.882M71.5882 164.69V197.429M106.882 164.69H142.176M106.882 164.69V197.429M142.176 164.69H177.471M142.176 164.69V197.429M177.471 164.69H212.765M177.471 164.69V197.429M212.765 164.69H248.059M212.765 164.69V197.429M248.059 164.69H283.353M248.059 164.69V197.429M283.353 164.69H318.647M283.353 164.69V197.429M318.647 164.69H353.941M318.647 164.69V197.429M353.941 164.69H389.235M353.941 164.69V197.429M389.235 164.69H424.529M389.235 164.69V197.429M424.529 164.69H459.824M424.529 164.69V197.429M459.824 164.69H495.118M459.824 164.69V197.429M495.118 164.69H530.412M495.118 164.69V197.429M530.412 164.69H565.706M530.412 164.69V197.429M565.706 164.69H601M565.706 164.69V197.429M601 164.69V197.429M36.2941 197.429H1M36.2941 197.429H71.5882M36.2941 197.429V230.167M1 197.429V230.167M71.5882 197.429H106.882M71.5882 197.429V230.167M106.882 197.429H142.176M106.882 197.429V230.167M142.176 197.429H177.471M142.176 197.429V230.167M177.471 197.429H212.765M177.471 197.429V230.167M212.765 197.429H248.059M212.765 197.429V230.167M248.059 197.429H283.353M248.059 197.429V230.167M283.353 197.429H318.647M283.353 197.429V230.167M318.647 197.429H353.941M318.647 197.429V230.167M353.941 197.429H389.235M353.941 197.429V230.167M389.235 197.429H424.529M389.235 197.429V230.167M424.529 197.429H459.824M424.529 197.429V230.167M459.824 197.429H495.118M459.824 197.429V230.167M495.118 197.429H530.412M495.118 197.429V230.167M530.412 197.429H565.706M530.412 197.429V230.167M565.706 197.429H601M565.706 197.429V230.167M601 197.429V230.167M36.2941 230.167H1M36.2941 230.167H71.5882M36.2941 230.167V262.905M1 230.167V262.905M71.5882 230.167H106.882M71.5882 230.167V262.905M106.882 230.167H142.176M106.882 230.167V262.905M142.176 230.167H177.471M142.176 230.167V262.905M177.471 230.167H212.765M177.471 230.167V262.905M212.765 230.167H248.059M212.765 230.167V262.905M248.059 230.167H283.353M248.059 230.167V262.905M283.353 230.167H318.647M283.353 230.167V262.905M318.647 230.167H353.941M318.647 230.167V262.905M353.941 230.167H389.235M353.941 230.167V262.905M389.235 230.167H424.529M389.235 230.167V262.905M424.529 230.167H459.824M424.529 230.167V262.905M459.824 230.167H495.118M459.824 230.167V262.905M495.118 230.167H530.412M495.118 230.167V262.905M530.412 230.167H565.706M530.412 230.167V262.905M565.706 230.167H601M565.706 230.167V262.905M601 230.167V262.905M36.2941 262.905H1M36.2941 262.905H71.5882M36.2941 262.905V295.643M1 262.905V295.643M71.5882 262.905H106.882M71.5882 262.905V295.643M106.882 262.905H142.176M106.882 262.905V295.643M142.176 262.905H177.471M142.176 262.905V295.643M177.471 262.905H212.765M177.471 262.905V295.643M212.765 262.905H248.059M212.765 262.905V295.643M248.059 262.905H283.353M248.059 262.905V295.643M283.353 262.905H318.647M283.353 262.905V295.643M318.647 262.905H353.941M318.647 262.905V295.643M353.941 262.905H389.235M353.941 262.905V295.643M389.235 262.905H424.529M389.235 262.905V295.643M424.529 262.905H459.824M424.529 262.905V295.643M459.824 262.905H495.118M459.824 262.905V295.643M495.118 262.905H530.412M495.118 262.905V295.643M530.412 262.905H565.706M530.412 262.905V295.643M565.706 262.905H601M565.706 262.905V295.643M601 262.905V295.643M36.2941 295.643H1M36.2941 295.643H71.5882M36.2941 295.643V328.381M1 295.643V328.381M71.5882 295.643H106.882M71.5882 295.643V328.381M106.882 295.643H142.176M106.882 295.643V328.381M142.176 295.643H177.471M142.176 295.643V328.381M177.471 295.643H212.765M177.471 295.643V328.381M212.765 295.643H248.059M212.765 295.643V328.381M248.059 295.643H283.353M248.059 295.643V328.381M283.353 295.643H318.647M283.353 295.643V328.381M318.647 295.643H353.941M318.647 295.643V328.381M353.941 295.643H389.235M353.941 295.643V328.381M389.235 295.643H424.529M389.235 295.643V328.381M424.529 295.643H459.824M424.529 295.643V328.381M459.824 295.643H495.118M459.824 295.643V328.381M495.118 295.643H530.412M495.118 295.643V328.381M530.412 295.643H565.706M530.412 295.643V328.381M565.706 295.643H601M565.706 295.643V328.381M601 295.643V328.381M36.2941 328.381H1M36.2941 328.381H71.5882M36.2941 328.381V361.119M1 328.381V361.119M71.5882 328.381H106.882M71.5882 328.381V361.119M106.882 328.381H142.176M106.882 328.381V361.119M142.176 328.381H177.471M142.176 328.381V361.119M177.471 328.381H212.765M177.471 328.381V361.119M212.765 328.381H248.059M212.765 328.381V361.119M248.059 328.381H283.353M248.059 328.381V361.119M283.353 328.381H318.647M283.353 328.381V361.119M318.647 328.381H353.941M318.647 328.381V361.119M353.941 328.381H389.235M353.941 328.381V361.119M389.235 328.381H424.529M389.235 328.381V361.119M424.529 328.381H459.824M424.529 328.381V361.119M459.824 328.381H495.118M459.824 328.381V361.119M495.118 328.381H530.412M495.118 328.381V361.119M530.412 328.381H565.706M530.412 328.381V361.119M565.706 328.381H601M565.706 328.381V361.119M601 328.381V361.119M36.2941 361.119H1M36.2941 361.119H71.5882M36.2941 361.119V393.857M1 361.119V393.857H36.2941M71.5882 361.119H106.882M71.5882 361.119V393.857M106.882 361.119H142.176M106.882 361.119V393.857M142.176 361.119H177.471M142.176 361.119V393.857M177.471 361.119H212.765M177.471 361.119V393.857M212.765 361.119H248.059M212.765 361.119V393.857M248.059 361.119H283.353M248.059 361.119V393.857M283.353 361.119H318.647M283.353 361.119V393.857M318.647 361.119H353.941M318.647 361.119V393.857M353.941 361.119H389.235M353.941 361.119V393.857M389.235 361.119H424.529M389.235 361.119V393.857M424.529 361.119H459.824M424.529 361.119V393.857M459.824 361.119H495.118M459.824 361.119V393.857M495.118 361.119H530.412M495.118 361.119V393.857M530.412 361.119H565.706M530.412 361.119V393.857M565.706 361.119H601M565.706 361.119V393.857M601 361.119V393.857H565.706M36.2941 393.857H71.5882M71.5882 393.857H106.882M106.882 393.857H142.176M142.176 393.857H177.471M177.471 393.857H212.765M212.765 393.857H248.059M248.059 393.857H283.353M283.353 393.857H318.647M318.647 393.857H353.941M353.941 393.857H389.235M389.235 393.857H424.529M424.529 393.857H459.824M459.824 393.857H495.118M495.118 393.857H530.412M530.412 393.857H565.706" stroke="url(#paint0_radial_2_584)" stroke-opacity="0.08"/>
<defs>
<radialGradient id="paint0_radial_2_584" cx="0" cy="0" r="1" gradientUnits="userSpaceOnUse" gradientTransform="translate(301 207.922) rotate(90) scale(185.516 300.453)">
<stop stop-color="white"/>
<stop offset="1" stop-color="white" stop-opacity="0"/>
</radialGradient>
</defs>
</svg>
