<svg width="810" height="349" viewBox="0 0 810 349" fill="none" xmlns="http://www.w3.org/2000/svg">
<path d="M48.5882 -161H1V-118.583M48.5882 -161V-118.583M48.5882 -161H96.1765M48.5882 -118.583H1M48.5882 -118.583H96.1765M48.5882 -118.583V-76.1667M1 -118.583V-76.1667M96.1765 -161V-118.583M96.1765 -161H143.765M96.1765 -118.583H143.765M96.1765 -118.583V-76.1667M143.765 -161V-118.583M143.765 -161H191.353M143.765 -118.583H191.353M143.765 -118.583V-76.1667M191.353 -161V-118.583M191.353 -161H238.941M191.353 -118.583H238.941M191.353 -118.583V-76.1667M238.941 -161V-118.583M238.941 -161H286.529M238.941 -118.583H286.529M238.941 -118.583V-76.1667M286.529 -161V-118.583M286.529 -161H334.118M286.529 -118.583H334.118M286.529 -118.583V-76.1667M334.118 -161V-118.583M334.118 -161H381.706M334.118 -118.583H381.706M334.118 -118.583V-76.1667M381.706 -161V-118.583M381.706 -161H429.294M381.706 -118.583H429.294M381.706 -118.583V-76.1667M429.294 -161V-118.583M429.294 -161H476.882M429.294 -118.583H476.882M429.294 -118.583V-76.1667M476.882 -161V-118.583M476.882 -161H524.471M476.882 -118.583H524.471M476.882 -118.583V-76.1667M524.471 -161V-118.583M524.471 -161H572.059M524.471 -118.583H572.059M524.471 -118.583V-76.1667M572.059 -161V-118.583M572.059 -161H619.647M572.059 -118.583H619.647M572.059 -118.583V-76.1667M619.647 -161V-118.583M619.647 -161H667.235M619.647 -118.583H667.235M619.647 -118.583V-76.1667M667.235 -161V-118.583M667.235 -161H714.824M667.235 -118.583H714.824M667.235 -118.583V-76.1667M714.824 -161V-118.583M714.824 -161H762.412M714.824 -118.583H762.412M714.824 -118.583V-76.1667M762.412 -161V-118.583M762.412 -161H810V-118.583M762.412 -118.583H810M762.412 -118.583V-76.1667M810 -118.583V-76.1667M48.5882 -76.1667H1M48.5882 -76.1667H96.1765M48.5882 -76.1667V-33.75M1 -76.1667V-33.75M96.1765 -76.1667H143.765M96.1765 -76.1667V-33.75M143.765 -76.1667H191.353M143.765 -76.1667V-33.75M191.353 -76.1667H238.941M191.353 -76.1667V-33.75M238.941 -76.1667H286.529M238.941 -76.1667V-33.75M286.529 -76.1667H334.118M286.529 -76.1667V-33.75M334.118 -76.1667H381.706M334.118 -76.1667V-33.75M381.706 -76.1667H429.294M381.706 -76.1667V-33.75M429.294 -76.1667H476.882M429.294 -76.1667V-33.75M476.882 -76.1667H524.471M476.882 -76.1667V-33.75M524.471 -76.1667H572.059M524.471 -76.1667V-33.75M572.059 -76.1667H619.647M572.059 -76.1667V-33.75M619.647 -76.1667H667.235M619.647 -76.1667V-33.75M667.235 -76.1667H714.824M667.235 -76.1667V-33.75M714.824 -76.1667H762.412M714.824 -76.1667V-33.75M762.412 -76.1667H810M762.412 -76.1667V-33.75M810 -76.1667V-33.75M48.5882 -33.75H1M48.5882 -33.75H96.1765M48.5882 -33.75V8.66667M1 -33.75V8.66667M96.1765 -33.75H143.765M96.1765 -33.75V8.66667M143.765 -33.75H191.353M143.765 -33.75V8.66667M191.353 -33.75H238.941M191.353 -33.75V8.66667M238.941 -33.75H286.529M238.941 -33.75V8.66667M286.529 -33.75H334.118M286.529 -33.75V8.66667M334.118 -33.75H381.706M334.118 -33.75V8.66667M381.706 -33.75H429.294M381.706 -33.75V8.66667M429.294 -33.75H476.882M429.294 -33.75V8.66667M476.882 -33.75H524.471M476.882 -33.75V8.66667M524.471 -33.75H572.059M524.471 -33.75V8.66667M572.059 -33.75H619.647M572.059 -33.75V8.66667M619.647 -33.75H667.235M619.647 -33.75V8.66667M667.235 -33.75H714.824M667.235 -33.75V8.66667M714.824 -33.75H762.412M714.824 -33.75V8.66667M762.412 -33.75H810M762.412 -33.75V8.66667M810 -33.75V8.66667M48.5882 8.66667H1M48.5882 8.66667H96.1765M48.5882 8.66667V51.0833M1 8.66667V51.0833M96.1765 8.66667H143.765M96.1765 8.66667V51.0833M143.765 8.66667H191.353M143.765 8.66667V51.0833M191.353 8.66667H238.941M191.353 8.66667V51.0833M238.941 8.66667H286.529M238.941 8.66667V51.0833M286.529 8.66667H334.118M286.529 8.66667V51.0833M334.118 8.66667H381.706M334.118 8.66667V51.0833M381.706 8.66667H429.294M381.706 8.66667V51.0833M429.294 8.66667H476.882M429.294 8.66667V51.0833M476.882 8.66667H524.471M476.882 8.66667V51.0833M524.471 8.66667H572.059M524.471 8.66667V51.0833M572.059 8.66667H619.647M572.059 8.66667V51.0833M619.647 8.66667H667.235M619.647 8.66667V51.0833M667.235 8.66667H714.824M667.235 8.66667V51.0833M714.824 8.66667H762.412M714.824 8.66667V51.0833M762.412 8.66667H810M762.412 8.66667V51.0833M810 8.66667V51.0833M48.5882 51.0833H1M48.5882 51.0833H96.1765M48.5882 51.0833V93.5M1 51.0833V93.5M96.1765 51.0833H143.765M96.1765 51.0833V93.5M143.765 51.0833H191.353M143.765 51.0833V93.5M191.353 51.0833H238.941M191.353 51.0833V93.5M238.941 51.0833H286.529M238.941 51.0833V93.5M286.529 51.0833H334.118M286.529 51.0833V93.5M334.118 51.0833H381.706M334.118 51.0833V93.5M381.706 51.0833H429.294M381.706 51.0833V93.5M429.294 51.0833H476.882M429.294 51.0833V93.5M476.882 51.0833H524.471M476.882 51.0833V93.5M524.471 51.0833H572.059M524.471 51.0833V93.5M572.059 51.0833H619.647M572.059 51.0833V93.5M619.647 51.0833H667.235M619.647 51.0833V93.5M667.235 51.0833H714.824M667.235 51.0833V93.5M714.824 51.0833H762.412M714.824 51.0833V93.5M762.412 51.0833H810M762.412 51.0833V93.5M810 51.0833V93.5M48.5882 93.5H1M48.5882 93.5H96.1765M48.5882 93.5V135.917M1 93.5V135.917M96.1765 93.5H143.765M96.1765 93.5V135.917M143.765 93.5H191.353M143.765 93.5V135.917M191.353 93.5H238.941M191.353 93.5V135.917M238.941 93.5H286.529M238.941 93.5V135.917M286.529 93.5H334.118M286.529 93.5V135.917M334.118 93.5H381.706M334.118 93.5V135.917M381.706 93.5H429.294M381.706 93.5V135.917M429.294 93.5H476.882M429.294 93.5V135.917M476.882 93.5H524.471M476.882 93.5V135.917M524.471 93.5H572.059M524.471 93.5V135.917M572.059 93.5H619.647M572.059 93.5V135.917M619.647 93.5H667.235M619.647 93.5V135.917M667.235 93.5H714.824M667.235 93.5V135.917M714.824 93.5H762.412M714.824 93.5V135.917M762.412 93.5H810M762.412 93.5V135.917M810 93.5V135.917M48.5882 135.917H1M48.5882 135.917H96.1765M48.5882 135.917V178.333M1 135.917V178.333M96.1765 135.917H143.765M96.1765 135.917V178.333M143.765 135.917H191.353M143.765 135.917V178.333M191.353 135.917H238.941M191.353 135.917V178.333M238.941 135.917H286.529M238.941 135.917V178.333M286.529 135.917H334.118M286.529 135.917V178.333M334.118 135.917H381.706M334.118 135.917V178.333M381.706 135.917H429.294M381.706 135.917V178.333M429.294 135.917H476.882M429.294 135.917V178.333M476.882 135.917H524.471M476.882 135.917V178.333M524.471 135.917H572.059M524.471 135.917V178.333M572.059 135.917H619.647M572.059 135.917V178.333M619.647 135.917H667.235M619.647 135.917V178.333M667.235 135.917H714.824M667.235 135.917V178.333M714.824 135.917H762.412M714.824 135.917V178.333M762.412 135.917H810M762.412 135.917V178.333M810 135.917V178.333M48.5882 178.333H1M48.5882 178.333H96.1765M48.5882 178.333V220.75M1 178.333V220.75M96.1765 178.333H143.765M96.1765 178.333V220.75M143.765 178.333H191.353M143.765 178.333V220.75M191.353 178.333H238.941M191.353 178.333V220.75M238.941 178.333H286.529M238.941 178.333V220.75M286.529 178.333H334.118M286.529 178.333V220.75M334.118 178.333H381.706M334.118 178.333V220.75M381.706 178.333H429.294M381.706 178.333V220.75M429.294 178.333H476.882M429.294 178.333V220.75M476.882 178.333H524.471M476.882 178.333V220.75M524.471 178.333H572.059M524.471 178.333V220.75M572.059 178.333H619.647M572.059 178.333V220.75M619.647 178.333H667.235M619.647 178.333V220.75M667.235 178.333H714.824M667.235 178.333V220.75M714.824 178.333H762.412M714.824 178.333V220.75M762.412 178.333H810M762.412 178.333V220.75M810 178.333V220.75M48.5882 220.75H1M48.5882 220.75H96.1765M48.5882 220.75V263.167M1 220.75V263.167M96.1765 220.75H143.765M96.1765 220.75V263.167M143.765 220.75H191.353M143.765 220.75V263.167M191.353 220.75H238.941M191.353 220.75V263.167M238.941 220.75H286.529M238.941 220.75V263.167M286.529 220.75H334.118M286.529 220.75V263.167M334.118 220.75H381.706M334.118 220.75V263.167M381.706 220.75H429.294M381.706 220.75V263.167M429.294 220.75H476.882M429.294 220.75V263.167M476.882 220.75H524.471M476.882 220.75V263.167M524.471 220.75H572.059M524.471 220.75V263.167M572.059 220.75H619.647M572.059 220.75V263.167M619.647 220.75H667.235M619.647 220.75V263.167M667.235 220.75H714.824M667.235 220.75V263.167M714.824 220.75H762.412M714.824 220.75V263.167M762.412 220.75H810M762.412 220.75V263.167M810 220.75V263.167M48.5882 263.167H1M48.5882 263.167H96.1765M48.5882 263.167V305.583M1 263.167V305.583M96.1765 263.167H143.765M96.1765 263.167V305.583M143.765 263.167H191.353M143.765 263.167V305.583M191.353 263.167H238.941M191.353 263.167V305.583M238.941 263.167H286.529M238.941 263.167V305.583M286.529 263.167H334.118M286.529 263.167V305.583M334.118 263.167H381.706M334.118 263.167V305.583M381.706 263.167H429.294M381.706 263.167V305.583M429.294 263.167H476.882M429.294 263.167V305.583M476.882 263.167H524.471M476.882 263.167V305.583M524.471 263.167H572.059M524.471 263.167V305.583M572.059 263.167H619.647M572.059 263.167V305.583M619.647 263.167H667.235M619.647 263.167V305.583M667.235 263.167H714.824M667.235 263.167V305.583M714.824 263.167H762.412M714.824 263.167V305.583M762.412 263.167H810M762.412 263.167V305.583M810 263.167V305.583M48.5882 305.583H1M48.5882 305.583H96.1765M48.5882 305.583V348M1 305.583V348H48.5882M96.1765 305.583H143.765M96.1765 305.583V348M143.765 305.583H191.353M143.765 305.583V348M191.353 305.583H238.941M191.353 305.583V348M238.941 305.583H286.529M238.941 305.583V348M286.529 305.583H334.118M286.529 305.583V348M334.118 305.583H381.706M334.118 305.583V348M381.706 305.583H429.294M381.706 305.583V348M429.294 305.583H476.882M429.294 305.583V348M476.882 305.583H524.471M476.882 305.583V348M524.471 305.583H572.059M524.471 305.583V348M572.059 305.583H619.647M572.059 305.583V348M619.647 305.583H667.235M619.647 305.583V348M667.235 305.583H714.824M667.235 305.583V348M714.824 305.583H762.412M714.824 305.583V348M762.412 305.583H810M762.412 305.583V348M810 305.583V348H762.412M48.5882 348H96.1765M96.1765 348H143.765M143.765 348H191.353M191.353 348H238.941M238.941 348H286.529M286.529 348H334.118M334.118 348H381.706M381.706 348H429.294M429.294 348H476.882M476.882 348H524.471M524.471 348H572.059M572.059 348H619.647M619.647 348H667.235M667.235 348H714.824M714.824 348H762.412" stroke="url(#paint0_radial_2_737)" stroke-opacity="0.08"/>
<defs>
<radialGradient id="paint0_radial_2_737" cx="0" cy="0" r="1" gradientUnits="userSpaceOnUse" gradientTransform="translate(405.5 107.095) rotate(90) scale(240.361 405.11)">
<stop stop-color="white"/>
<stop offset="1" stop-color="white" stop-opacity="0"/>
</radialGradient>
</defs>
</svg>
