<svg width="294" height="191" viewBox="0 0 294 191" fill="none" xmlns="http://www.w3.org/2000/svg">
<g clip-path="url(#clip0_2_1012)">
<path d="M77.2628 0H10.0341C4.49243 0 0 4.49243 0 10.0341V77.2628C0 82.8045 4.49243 87.2969 10.0341 87.2969H77.2628C82.8045 87.2969 87.2969 82.8045 87.2969 77.2628V10.0341C87.2969 4.49243 82.8045 0 77.2628 0Z" fill="#202020"/>
<path d="M27.8834 33.4892C29.21 32.318 30.9528 31.6074 32.8616 31.6074H55.4384C57.3472 31.6074 59.09 32.318 60.4167 33.4892C60.1083 31.0142 57.997 29.0989 55.4384 29.0989H32.8616C30.303 29.0989 28.1917 31.0142 27.8834 33.4892Z" fill="white"/>
<path d="M27.8834 38.5063C29.21 37.3351 30.9528 36.6245 32.8616 36.6245H55.4384C57.3472 36.6245 59.09 37.3351 60.4167 38.5063C60.1083 36.0313 57.997 34.116 55.4384 34.116H32.8616C30.303 34.116 28.1917 36.0313 27.8834 38.5063Z" fill="white"/>
<path d="M32.8618 39.1331C30.091 39.1331 27.8447 41.3793 27.8447 44.1501V54.1843C27.8447 56.9551 30.091 59.2013 32.8618 59.2013H55.4386C58.2094 59.2013 60.4556 56.9551 60.4556 54.1843V44.1501C60.4556 41.3793 58.2094 39.1331 55.4386 39.1331H49.1673C48.4745 39.1331 47.913 39.6946 47.913 40.3873C47.913 42.4655 46.2284 44.1501 44.1502 44.1501C42.072 44.1501 40.3874 42.4655 40.3874 40.3873C40.3874 39.6946 39.8259 39.1331 39.1331 39.1331H32.8618Z" fill="white"/>
<path d="M77.2628 0.501709H10.0341C4.76952 0.501709 0.501709 4.76952 0.501709 10.0341V77.2628C0.501709 82.5274 4.76952 86.7952 10.0341 86.7952H77.2628C82.5274 86.7952 86.7952 82.5274 86.7952 77.2628V10.0341C86.7952 4.76952 82.5274 0.501709 77.2628 0.501709Z" stroke="white" stroke-opacity="0.04"/>
<path d="M77.2628 0.501709H10.0341C4.76952 0.501709 0.501709 4.76952 0.501709 10.0341V77.2628C0.501709 82.5274 4.76952 86.7952 10.0341 86.7952H77.2628C82.5274 86.7952 86.7952 82.5274 86.7952 77.2628V10.0341C86.7952 4.76952 82.5274 0.501709 77.2628 0.501709Z" stroke="url(#paint0_linear_2_1012)" stroke-opacity="0.12"/>
<path d="M77.2628 103.352H10.0341C4.49243 103.352 0 107.844 0 113.386V180.614C0 186.156 4.49243 190.648 10.0341 190.648H77.2628C82.8045 190.648 87.2969 186.156 87.2969 180.614V113.386C87.2969 107.844 82.8045 103.352 77.2628 103.352Z" fill="#202020"/>
<path fill-rule="evenodd" clip-rule="evenodd" d="M36.6246 137.467V138.722H33.3014C31.6967 138.722 30.3509 139.933 30.183 141.529L28.0705 161.598C27.8756 163.449 29.3273 165.061 31.189 165.061H57.1117C58.9733 165.061 60.425 163.449 60.2301 161.598L58.1177 141.529C57.9496 139.933 56.6039 138.722 54.9992 138.722H51.6758V137.467C51.6758 133.311 48.3064 129.942 44.1502 129.942C39.9939 129.942 36.6246 133.311 36.6246 137.467ZM44.1502 132.45C41.3793 132.45 39.1331 134.697 39.1331 137.467V138.722H49.1672V137.467C49.1672 134.697 46.921 132.45 44.1502 132.45ZM39.1331 146.247C39.1331 149.018 41.3793 151.264 44.1502 151.264C46.921 151.264 49.1672 149.018 49.1672 146.247V144.993C49.1672 144.301 49.7287 143.739 50.4215 143.739C51.1143 143.739 51.6758 144.301 51.6758 144.993V146.247C51.6758 150.403 48.3064 153.773 44.1502 153.773C39.9939 153.773 36.6246 150.403 36.6246 146.247V144.993C36.6246 144.301 37.1861 143.739 37.8788 143.739C38.5716 143.739 39.1331 144.301 39.1331 144.993V146.247Z" fill="white"/>
<path d="M77.2628 103.853H10.0341C4.76952 103.853 0.501709 108.121 0.501709 113.386V180.614C0.501709 185.879 4.76952 190.147 10.0341 190.147H77.2628C82.5274 190.147 86.7952 185.879 86.7952 180.614V113.386C86.7952 108.121 82.5274 103.853 77.2628 103.853Z" stroke="white" stroke-opacity="0.04"/>
<path d="M77.2628 103.853H10.0341C4.76952 103.853 0.501709 108.121 0.501709 113.386V180.614C0.501709 185.879 4.76952 190.147 10.0341 190.147H77.2628C82.5274 190.147 86.7952 185.879 86.7952 180.614V113.386C86.7952 108.121 82.5274 103.853 77.2628 103.853Z" stroke="url(#paint1_linear_2_1012)" stroke-opacity="0.12"/>
<path d="M180.614 0H113.386C107.844 0 103.352 4.49243 103.352 10.0341V77.2628C103.352 82.8045 107.844 87.2969 113.386 87.2969H180.614C186.156 87.2969 190.648 82.8045 190.648 77.2628V10.0341C190.648 4.49243 186.156 0 180.614 0Z" fill="#202020"/>
<path fill-rule="evenodd" clip-rule="evenodd" d="M129.942 34.7431C129.942 33.0113 131.346 31.6074 133.078 31.6074H161.926C163.658 31.6074 165.061 33.0113 165.061 34.7431V39.8042C165.061 40.2519 164.823 40.6657 164.435 40.8899C163.308 41.5424 162.553 42.7589 162.553 44.1501C162.553 45.5413 163.308 46.7578 164.435 47.4103C164.823 47.6344 165.061 48.0482 165.061 48.496V53.5571C165.061 55.2889 163.658 56.6927 161.926 56.6927H133.078C131.346 56.6927 129.942 55.2889 129.942 53.5571V48.496C129.942 48.0482 130.181 47.6344 130.568 47.4103C131.696 46.7578 132.451 45.5413 132.451 44.1501C132.451 42.7589 131.696 41.5424 130.568 40.8899C130.181 40.6657 129.942 40.2519 129.942 39.8042V34.7431ZM155.027 32.8617C155.72 32.8617 156.282 33.4232 156.282 34.116V35.3702C156.282 36.063 155.72 36.6245 155.027 36.6245C154.335 36.6245 153.773 36.063 153.773 35.3702V34.116C153.773 33.4232 154.335 32.8617 155.027 32.8617ZM156.282 40.3873C156.282 39.6945 155.72 39.133 155.027 39.133C154.335 39.133 153.773 39.6945 153.773 40.3873V41.6416C153.773 42.3343 154.335 42.8958 155.027 42.8958C155.72 42.8958 156.282 42.3343 156.282 41.6416V40.3873ZM155.027 45.4044C155.72 45.4044 156.282 45.9659 156.282 46.6586V47.9129C156.282 48.6056 155.72 49.1671 155.027 49.1671C154.335 49.1671 153.773 48.6056 153.773 47.9129V46.6586C153.773 45.9659 154.335 45.4044 155.027 45.4044ZM156.282 52.9299C156.282 52.2372 155.72 51.6757 155.027 51.6757C154.335 51.6757 153.773 52.2372 153.773 52.9299V54.1842C153.773 54.877 154.335 55.4385 155.027 55.4385C155.72 55.4385 156.282 54.877 156.282 54.1842V52.9299ZM137.468 44.1501C137.468 43.4573 138.03 42.8958 138.722 42.8958H147.502C148.194 42.8958 148.756 43.4573 148.756 44.1501C148.756 44.8428 148.194 45.4044 147.502 45.4044H138.722C138.03 45.4044 137.468 44.8428 137.468 44.1501ZM138.722 47.9129C138.03 47.9129 137.468 48.4744 137.468 49.1671C137.468 49.8599 138.03 50.4214 138.722 50.4214H143.739C144.431 50.4214 144.993 49.8599 144.993 49.1671C144.993 48.4744 144.431 47.9129 143.739 47.9129H138.722Z" fill="white"/>
<path d="M180.614 0.501709H113.386C108.121 0.501709 103.853 4.76952 103.853 10.0341V77.2628C103.853 82.5274 108.121 86.7952 113.386 86.7952H180.614C185.879 86.7952 190.147 82.5274 190.147 77.2628V10.0341C190.147 4.76952 185.879 0.501709 180.614 0.501709Z" stroke="white" stroke-opacity="0.04"/>
<path d="M180.614 0.501709H113.386C108.121 0.501709 103.853 4.76952 103.853 10.0341V77.2628C103.853 82.5274 108.121 86.7952 113.386 86.7952H180.614C185.879 86.7952 190.147 82.5274 190.147 77.2628V10.0341C190.147 4.76952 185.879 0.501709 180.614 0.501709Z" stroke="url(#paint2_linear_2_1012)" stroke-opacity="0.12"/>
<path d="M180.614 103.352H113.386C107.844 103.352 103.352 107.844 103.352 113.386V180.614C103.352 186.156 107.844 190.648 113.386 190.648H180.614C186.156 190.648 190.648 186.156 190.648 180.614V113.386C190.648 107.844 186.156 103.352 180.614 103.352Z" fill="#202020"/>
<path d="M143.112 132.45C141.38 132.45 139.976 133.854 139.976 135.586C139.976 137.318 141.38 138.722 143.112 138.722H146.247V146.247H133.078C131.346 146.247 129.942 144.844 129.942 143.112V141.857C129.942 140.126 131.346 138.722 133.078 138.722H138.418C137.818 137.825 137.468 136.746 137.468 135.586C137.468 132.468 139.994 129.942 143.112 129.942C144.885 129.942 146.467 130.76 147.502 132.038C148.536 130.76 150.119 129.942 151.892 129.942C155.009 129.942 157.536 132.468 157.536 135.586C157.536 136.746 157.186 137.825 156.586 138.722H163.18C164.912 138.722 166.316 140.126 166.316 141.857V143.112C166.316 144.844 164.912 146.247 163.18 146.247H148.756V138.722H151.892C153.624 138.722 155.027 137.318 155.027 135.586C155.027 133.854 153.624 132.45 151.892 132.45C150.16 132.45 148.756 133.854 148.756 135.586V138.722H146.247V135.586C146.247 133.854 144.844 132.45 143.112 132.45Z" fill="white"/>
<path d="M146.247 148.756H132.451V160.044C132.451 162.122 134.135 163.807 136.213 163.807H146.247V148.756Z" fill="white"/>
<path d="M148.756 148.756V163.807H160.044C162.122 163.807 163.807 162.122 163.807 160.044V148.756H148.756Z" fill="white"/>
<path d="M180.614 103.853H113.386C108.121 103.853 103.853 108.121 103.853 113.386V180.614C103.853 185.879 108.121 190.147 113.386 190.147H180.614C185.879 190.147 190.147 185.879 190.147 180.614V113.386C190.147 108.121 185.879 103.853 180.614 103.853Z" stroke="white" stroke-opacity="0.04"/>
<path d="M180.614 103.853H113.386C108.121 103.853 103.853 108.121 103.853 113.386V180.614C103.853 185.879 108.121 190.147 113.386 190.147H180.614C185.879 190.147 190.147 185.879 190.147 180.614V113.386C190.147 108.121 185.879 103.853 180.614 103.853Z" stroke="url(#paint3_linear_2_1012)" stroke-opacity="0.12"/>
<path d="M283.966 0H216.737C211.195 0 206.703 4.49243 206.703 10.0341V77.2628C206.703 82.8045 211.195 87.2969 216.737 87.2969H283.966C289.508 87.2969 294 82.8045 294 77.2628V10.0341C294 4.49243 289.508 0 283.966 0Z" fill="#202020"/>
<path d="M250.853 36.6245C248.775 36.6245 247.09 38.3091 247.09 40.3873C247.09 42.4655 248.775 44.1501 250.853 44.1501C252.931 44.1501 254.616 42.4655 254.616 40.3873C254.616 38.3091 252.931 36.6245 250.853 36.6245Z" fill="white"/>
<path fill-rule="evenodd" clip-rule="evenodd" d="M233.294 32.2345C233.294 30.5028 234.697 29.0989 236.429 29.0989H265.277C267.009 29.0989 268.413 30.5028 268.413 32.2345V48.54C268.413 50.2718 267.009 51.6757 265.277 51.6757H236.429C234.697 51.6757 233.294 50.2718 233.294 48.54V32.2345ZM244.582 40.3873C244.582 36.9237 247.389 34.1159 250.853 34.1159C254.317 34.1159 257.125 36.9237 257.125 40.3873C257.125 43.8509 254.317 46.6586 250.853 46.6586C247.389 46.6586 244.582 43.8509 244.582 40.3873ZM262.142 39.133C261.449 39.133 260.887 39.6945 260.887 40.3873V40.3998C260.887 41.0926 261.449 41.6541 262.142 41.6541H262.155C262.847 41.6541 263.409 41.0926 263.409 40.3998V40.3873C263.409 39.6945 262.847 39.133 262.155 39.133H262.142ZM238.311 40.3873C238.311 39.6945 238.872 39.133 239.565 39.133H239.578C240.27 39.133 240.832 39.6945 240.832 40.3873V40.3998C240.832 41.0926 240.27 41.6541 239.578 41.6541H239.565C238.872 41.6541 238.311 41.0926 238.311 40.3998V40.3873Z" fill="white"/>
<path d="M234.548 54.1843C233.855 54.1843 233.294 54.7458 233.294 55.4386C233.294 56.1313 233.855 56.6929 234.548 56.6929C243.579 56.6929 252.325 57.9007 260.637 60.1629C262.627 60.7048 264.65 59.2295 264.65 57.1195V55.4386C264.65 54.7458 264.088 54.1843 263.396 54.1843H234.548Z" fill="white"/>
<path d="M283.966 0.501709H216.737C211.473 0.501709 207.205 4.76952 207.205 10.0341V77.2628C207.205 82.5274 211.473 86.7952 216.737 86.7952H283.966C289.23 86.7952 293.498 82.5274 293.498 77.2628V10.0341C293.498 4.76952 289.23 0.501709 283.966 0.501709Z" stroke="white" stroke-opacity="0.04"/>
<path d="M283.966 0.501709H216.737C211.473 0.501709 207.205 4.76952 207.205 10.0341V77.2628C207.205 82.5274 211.473 86.7952 216.737 86.7952H283.966C289.23 86.7952 293.498 82.5274 293.498 77.2628V10.0341C293.498 4.76952 289.23 0.501709 283.966 0.501709Z" stroke="url(#paint4_linear_2_1012)" stroke-opacity="0.12"/>
<path d="M283.966 103.352H216.737C211.195 103.352 206.703 107.844 206.703 113.386V180.614C206.703 186.156 211.195 190.648 216.737 190.648H283.966C289.508 190.648 294 186.156 294 180.614V113.386C294 107.844 289.508 103.352 283.966 103.352Z" fill="#202020"/>
<path fill-rule="evenodd" clip-rule="evenodd" d="M240.192 129.942H245.836C249.3 129.942 252.108 132.749 252.108 136.213V139.349C252.108 141.081 253.511 142.485 255.243 142.485H258.379C261.843 142.485 264.65 145.292 264.65 148.756V161.926C264.65 163.658 263.246 165.061 261.515 165.061H240.192C238.46 165.061 237.056 163.658 237.056 161.926V133.078C237.056 131.346 238.46 129.942 240.192 129.942ZM247.09 156.281C247.09 155.589 246.529 155.027 245.836 155.027C245.144 155.027 244.582 155.589 244.582 156.281V157.536C244.582 158.228 245.144 158.79 245.836 158.79C246.529 158.79 247.09 158.228 247.09 157.536V156.281ZM250.853 151.264C251.546 151.264 252.108 151.826 252.108 152.519V157.536C252.108 158.228 251.546 158.79 250.853 158.79C250.161 158.79 249.599 158.228 249.599 157.536V152.519C249.599 151.826 250.161 151.264 250.853 151.264ZM257.125 148.756C257.125 148.064 256.563 147.502 255.87 147.502C255.178 147.502 254.616 148.064 254.616 148.756V157.536C254.616 158.228 255.178 158.79 255.87 158.79C256.563 158.79 257.125 158.228 257.125 157.536V148.756Z" fill="white"/>
<path d="M254.616 136.213C254.616 134.018 253.81 132.01 252.478 130.471C258.162 131.955 262.637 136.43 264.121 142.114C262.582 140.782 260.574 139.976 258.379 139.976H255.243C254.897 139.976 254.616 139.695 254.616 139.349V136.213Z" fill="white"/>
<path d="M283.966 103.853H216.737C211.473 103.853 207.205 108.121 207.205 113.386V180.614C207.205 185.879 211.473 190.147 216.737 190.147H283.966C289.23 190.147 293.498 185.879 293.498 180.614V113.386C293.498 108.121 289.23 103.853 283.966 103.853Z" stroke="white" stroke-opacity="0.04"/>
<path d="M283.966 103.853H216.737C211.473 103.853 207.205 108.121 207.205 113.386V180.614C207.205 185.879 211.473 190.147 216.737 190.147H283.966C289.23 190.147 293.498 185.879 293.498 180.614V113.386C293.498 108.121 289.23 103.853 283.966 103.853Z" stroke="url(#paint5_linear_2_1012)" stroke-opacity="0.12"/>
</g>
<defs>
<linearGradient id="paint0_linear_2_1012" x1="43.6485" y1="2.51129e-06" x2="43.6485" y2="64.6333" gradientUnits="userSpaceOnUse">
<stop stop-color="white"/>
<stop offset="1" stop-color="white" stop-opacity="0"/>
</linearGradient>
<linearGradient id="paint1_linear_2_1012" x1="43.6485" y1="103.352" x2="43.6485" y2="167.984" gradientUnits="userSpaceOnUse">
<stop stop-color="white"/>
<stop offset="1" stop-color="white" stop-opacity="0"/>
</linearGradient>
<linearGradient id="paint2_linear_2_1012" x1="147" y1="2.51129e-06" x2="147" y2="64.6333" gradientUnits="userSpaceOnUse">
<stop stop-color="white"/>
<stop offset="1" stop-color="white" stop-opacity="0"/>
</linearGradient>
<linearGradient id="paint3_linear_2_1012" x1="147" y1="103.352" x2="147" y2="167.984" gradientUnits="userSpaceOnUse">
<stop stop-color="white"/>
<stop offset="1" stop-color="white" stop-opacity="0"/>
</linearGradient>
<linearGradient id="paint4_linear_2_1012" x1="250.352" y1="2.51129e-06" x2="250.352" y2="64.6333" gradientUnits="userSpaceOnUse">
<stop stop-color="white"/>
<stop offset="1" stop-color="white" stop-opacity="0"/>
</linearGradient>
<linearGradient id="paint5_linear_2_1012" x1="250.352" y1="103.352" x2="250.352" y2="167.984" gradientUnits="userSpaceOnUse">
<stop stop-color="white"/>
<stop offset="1" stop-color="white" stop-opacity="0"/>
</linearGradient>
<clipPath id="clip0_2_1012">
<rect width="294" height="190.648" fill="white"/>
</clipPath>
</defs>
</svg>
