<svg width="294" height="155" viewBox="0 0 294 155" fill="none" xmlns="http://www.w3.org/2000/svg">
<g clip-path="url(#clip0_2_937)">
<path d="M255.938 0H38.0625C33.7133 0 30.1875 3.52576 30.1875 7.875V36.75C30.1875 41.0992 33.7133 44.625 38.0625 44.625H255.938C260.287 44.625 263.813 41.0992 263.813 36.75V7.875C263.813 3.52576 260.287 0 255.938 0Z" fill="#202020"/>
<path d="M59.0625 10.5H45.9375C43.038 10.5 40.6875 12.8505 40.6875 15.75V28.875C40.6875 31.7745 43.038 34.125 45.9375 34.125H59.0625C61.962 34.125 64.3125 31.7745 64.3125 28.875V15.75C64.3125 12.8505 61.962 10.5 59.0625 10.5Z" fill="#2B2B2B"/>
<path fill-rule="evenodd" clip-rule="evenodd" d="M48.3751 18.8127V24.3751C48.3751 24.6193 48.1771 24.8171 47.9331 24.8171C47.689 24.8171 47.4911 24.6193 47.4911 24.3751V17.7457C47.4911 17.6285 47.5377 17.5161 47.6206 17.4332C47.7034 17.3503 47.8159 17.3037 47.9331 17.3037H54.5625C54.8066 17.3037 55.0045 17.5016 55.0045 17.7457C55.0045 17.9898 54.8066 18.1876 54.5625 18.1876H49.0001L57.0849 26.2725C57.2575 26.4451 57.2575 26.7249 57.0849 26.8975C56.9123 27.0701 56.6325 27.0701 56.4599 26.8975L48.3751 18.8127Z" fill="white"/>
<path d="M78.4015 23.748V26.0962H77.5707V23.748H75.3814V22.9175H77.5707V20.6257H78.4015V22.9175H80.5907V23.748H78.4015ZM86.8507 26.9524H86.1636V26.2654C84.7796 26.1629 83.8667 25.3681 83.8615 24.2249H84.7382C84.7947 24.9118 85.3177 25.3681 86.1636 25.4707V22.8047L85.7534 22.6919C84.6562 22.4048 84.0406 21.7332 84.0406 20.7796C84.0406 19.6567 84.8563 18.8928 86.1636 18.7647V18.0469H86.8507V18.7595C88.1323 18.8672 88.973 19.6618 89.0091 20.7693H88.1376C88.1166 20.1336 87.6093 19.6465 86.8507 19.5542V22.0613L87.2864 22.1689C88.5373 22.5022 89.1371 23.1226 89.1371 24.1582C89.1371 25.3733 88.2912 26.1423 86.8507 26.2602V26.9524ZM88.2505 24.23C88.2505 23.5532 87.8193 23.1482 86.8507 22.9431V25.4861C87.7425 25.4399 88.2505 24.9785 88.2505 24.23ZM84.9226 20.7282C84.9226 21.3384 85.3531 21.7434 86.1636 21.9126V19.5542C85.4457 19.5952 84.9226 20.0823 84.9226 20.7282ZM90.2343 20.9846C90.2343 19.6926 91.2804 18.7288 92.6749 18.7288C93.9973 18.7288 95.0381 19.6259 95.0381 20.759C95.0381 21.5845 94.664 22.1997 93.4283 23.4763L91.5573 25.4092V25.4297H95.1614V26.25H90.2803V25.6142L92.8849 22.8714C93.8798 21.8254 94.1154 21.4306 94.1154 20.8155C94.1154 20.1028 93.4644 19.5337 92.6493 19.5337C91.7824 19.5337 91.1262 20.1592 91.1262 20.9846V20.9898H90.2343V20.9846ZM96.1813 20.9846C96.1813 19.6926 97.2273 18.7288 98.6219 18.7288C99.9449 18.7288 100.986 19.6259 100.986 20.759C100.986 21.5845 100.611 22.1997 99.3759 23.4763L97.5043 25.4092V25.4297H101.108V26.25H96.2278V25.6142L98.8325 22.8714C99.8267 21.8254 100.063 21.4306 100.063 20.8155C100.063 20.1028 99.4113 19.5337 98.5963 19.5337C97.73 19.5337 97.0738 20.1592 97.0738 20.9846V20.9898H96.1813V20.9846ZM102.908 26.3013C102.58 26.3013 102.324 26.0449 102.324 25.7168C102.324 25.3887 102.58 25.1323 102.908 25.1323C103.236 25.1323 103.493 25.3887 103.493 25.7168C103.493 26.0449 103.236 26.3013 102.908 26.3013ZM106.112 26.25V19.8311H106.092L104.134 21.241V20.2668L106.102 18.8518H107.005V26.25H106.112ZM111.424 26.373C110.009 26.373 108.963 25.4912 108.886 24.23H109.794C109.876 25.0195 110.547 25.563 111.434 25.563C112.439 25.563 113.136 24.8657 113.136 23.8711C113.136 22.8765 112.434 22.1638 111.45 22.1638C110.757 22.1638 110.168 22.4766 109.865 22.9944H108.999L109.404 18.8518H113.639V19.6721H110.163L109.937 22.0818H109.958C110.291 21.6358 110.906 21.3691 111.614 21.3691C113.034 21.3691 114.059 22.4099 114.059 23.8454C114.059 25.3323 112.967 26.373 111.424 26.373ZM118.217 19.6721V22.5073H119.986C120.934 22.5073 121.473 21.9946 121.473 21.0872C121.473 20.2002 120.899 19.6721 119.945 19.6721H118.217ZM118.217 23.3225V26.25H117.294V18.8518H120.068C121.493 18.8518 122.427 19.7234 122.427 21.0564C122.427 22.0869 121.868 22.8867 120.94 23.1789L122.652 26.25H121.57L119.986 23.3225H118.217ZM125.59 21.5999C124.754 21.5999 124.17 22.2407 124.113 23.1277H127.01C126.99 22.2356 126.43 21.5999 125.59 21.5999ZM126.99 24.7222H127.866C127.712 25.6553 126.81 26.3423 125.646 26.3423C124.118 26.3423 123.191 25.281 123.191 23.6045C123.191 21.9485 124.134 20.8257 125.605 20.8257C127.046 20.8257 127.933 21.8716 127.933 23.4866V23.825H124.108V23.8762C124.108 24.8965 124.708 25.5681 125.667 25.5681C126.343 25.5681 126.841 25.2246 126.99 24.7222ZM133.265 22.6663H132.393C132.265 22.0869 131.814 21.6101 131.029 21.6101C130.107 21.6101 129.481 22.3741 129.481 23.584C129.481 24.8247 130.117 25.5579 131.04 25.5579C131.768 25.5579 132.245 25.1734 132.398 24.5325H133.275C133.137 25.5938 132.245 26.3423 131.035 26.3423C129.558 26.3423 128.574 25.3015 128.574 23.584C128.574 21.9023 129.553 20.8257 131.024 20.8257C132.358 20.8257 133.152 21.7075 133.265 22.6663ZM136.234 21.5999C135.397 21.5999 134.813 22.2407 134.757 23.1277H137.654C137.633 22.2356 137.074 21.5999 136.234 21.5999ZM137.633 24.7222H138.509C138.356 25.6553 137.453 26.3423 136.29 26.3423C134.762 26.3423 133.834 25.281 133.834 23.6045C133.834 21.9485 134.777 20.8257 136.249 20.8257C137.689 20.8257 138.576 21.8716 138.576 23.4866V23.825H134.752V23.8762C134.752 24.8965 135.352 25.5681 136.31 25.5681C136.987 25.5681 137.484 25.2246 137.633 24.7222ZM139.525 26.25V20.918H140.417V26.25H139.525ZM139.971 20.0207C139.668 20.0207 139.417 19.7695 139.417 19.4671C139.417 19.1594 139.668 18.9133 139.971 18.9133C140.279 18.9133 140.53 19.1594 140.53 19.4671C140.53 19.7695 140.279 20.0207 139.971 20.0207ZM145.995 20.918L144.036 26.25H143.124L141.161 20.918H142.098L143.57 25.3015H143.591L145.067 20.918H145.995ZM148.681 21.5999C147.846 21.5999 147.261 22.2407 147.205 23.1277H150.102C150.081 22.2356 149.523 21.5999 148.681 21.5999ZM150.081 24.7222H150.958C150.804 25.6553 149.902 26.3423 148.738 26.3423C147.21 26.3423 146.282 25.281 146.282 23.6045C146.282 21.9485 147.226 20.8257 148.697 20.8257C150.137 20.8257 151.025 21.8716 151.025 23.4866V23.825H147.2V23.8762C147.2 24.8965 147.8 25.5681 148.759 25.5681C149.435 25.5681 149.933 25.2246 150.081 24.7222ZM153.947 26.3423C152.589 26.3423 151.665 25.2554 151.665 23.584C151.665 21.9126 152.583 20.8257 153.927 20.8257C154.691 20.8257 155.305 21.2 155.624 21.7844H155.644V18.8518H156.536V26.25H155.685V25.3477H155.67C155.326 25.9629 154.716 26.3423 153.947 26.3423ZM154.116 21.6101C153.173 21.6101 152.578 22.3792 152.578 23.584C152.578 24.7939 153.173 25.5579 154.116 25.5579C155.034 25.5579 155.649 24.7786 155.649 23.584C155.649 22.3945 155.034 21.6101 154.116 21.6101ZM160.181 26.25V21.6511H159.438V20.918H160.181V20.3233C160.181 19.2978 160.658 18.8108 161.642 18.8108C161.842 18.8108 162.058 18.8313 162.186 18.8518V19.5747C162.079 19.5593 161.93 19.5439 161.781 19.5439C161.299 19.5439 161.069 19.8003 161.069 20.3284V20.918H162.161V21.6511H161.073V26.25H160.181ZM163.083 26.25V20.918H163.924V21.7895H163.944C164.119 21.2 164.611 20.8257 165.236 20.8257C165.39 20.8257 165.524 20.8513 165.595 20.8616V21.728C165.524 21.7024 165.334 21.6767 165.118 21.6767C164.427 21.6767 163.975 22.1741 163.975 22.9277V26.25H163.083ZM168.277 26.3423C166.8 26.3423 165.805 25.281 165.805 23.584C165.805 21.8819 166.8 20.8257 168.277 20.8257C169.748 20.8257 170.743 21.8819 170.743 23.584C170.743 25.281 169.748 26.3423 168.277 26.3423ZM168.277 25.5579C169.22 25.5579 169.835 24.8401 169.835 23.584C169.835 22.3279 169.22 21.6101 168.277 21.6101C167.333 21.6101 166.713 22.3279 166.713 23.584C166.713 24.8401 167.333 25.5579 168.277 25.5579ZM171.645 26.25V20.918H172.486V21.7691H172.506C172.758 21.2051 173.301 20.8257 174.019 20.8257C174.747 20.8257 175.286 21.1948 175.516 21.8408H175.536C175.834 21.2051 176.46 20.8257 177.208 20.8257C178.264 20.8257 178.946 21.5127 178.946 22.5688V26.25H178.054V22.7739C178.054 22.0459 177.649 21.6152 176.947 21.6152C176.239 21.6152 175.742 22.1382 175.742 22.8611V26.25H174.85V22.6765C174.85 22.0356 174.419 21.6152 173.757 21.6152C173.05 21.6152 172.537 22.1689 172.537 22.9072V26.25H171.645ZM183.289 26.25H182.376V18.8518H183.273L187.323 24.6606H187.37V18.8518H188.282V26.25H187.385L183.335 20.4617H183.289V26.25ZM191.748 25.5066C192.676 25.5066 193.296 24.7375 193.296 23.5634C193.296 22.3894 192.676 21.6101 191.748 21.6101C190.83 21.6101 190.23 22.3689 190.23 23.5634C190.23 24.7581 190.83 25.5066 191.748 25.5066ZM191.779 28.2598C190.604 28.2598 189.677 27.5984 189.528 26.6909H190.446C190.62 27.178 191.148 27.5009 191.815 27.5009C192.737 27.5009 193.296 26.9678 193.296 26.1731V25.3323H193.276C192.948 25.9116 192.317 26.291 191.569 26.291C190.21 26.291 189.318 25.2195 189.318 23.5634C189.318 21.8921 190.21 20.8257 191.589 20.8257C192.343 20.8257 192.968 21.1948 193.322 21.8152H193.337V20.918H194.188V26.1423C194.188 27.4138 193.25 28.2598 191.779 28.2598ZM199.731 20.918V26.25H198.884V25.3836H198.864C198.546 25.9988 197.993 26.3423 197.172 26.3423C196.009 26.3423 195.327 25.5886 195.327 24.3786V20.918H196.219V24.2197C196.219 25.0862 196.624 25.5527 197.449 25.5527C198.315 25.5527 198.838 24.958 198.838 24.0505V20.918H199.731ZM201.33 28.2444C201.223 28.2444 201.043 28.2341 200.946 28.2136V27.4651C201.043 27.4856 201.181 27.4907 201.294 27.4907C201.792 27.4907 202.069 27.2497 202.274 26.6294L202.397 26.2551L200.428 20.918H201.381L202.858 25.3579H202.874L204.35 20.918H205.288L203.191 26.6243C202.735 27.8702 202.294 28.2444 201.33 28.2444ZM207.98 21.5999C207.144 21.5999 206.56 22.2407 206.503 23.1277H209.4C209.38 22.2356 208.821 21.5999 207.98 21.5999ZM209.38 24.7222H210.257C210.102 25.6553 209.2 26.3423 208.036 26.3423C206.509 26.3423 205.581 25.281 205.581 23.6045C205.581 21.9485 206.524 20.8257 207.995 20.8257C209.436 20.8257 210.323 21.8716 210.323 23.4866V23.825H206.498V23.8762C206.498 24.8965 207.098 25.5681 208.057 25.5681C208.733 25.5681 209.231 25.2246 209.38 24.7222ZM211.225 26.25V20.918H212.066V21.7691H212.087C212.384 21.1948 212.953 20.8257 213.779 20.8257C214.947 20.8257 215.624 21.5793 215.624 22.7893V26.25H214.732V22.9483C214.732 22.0869 214.327 21.6152 213.507 21.6152C212.666 21.6152 212.118 22.21 212.118 23.1123V26.25H211.225ZM218.701 24.2146H219.628C219.716 25.0144 220.474 25.5425 221.53 25.5425C222.53 25.5425 223.258 25.0144 223.258 24.2864C223.258 23.6609 222.822 23.2764 221.828 23.02L220.879 22.7739C219.516 22.4253 218.911 21.8254 218.911 20.8206C218.911 19.5901 219.987 18.7288 221.525 18.7288C222.997 18.7288 224.063 19.6003 224.104 20.8411H223.181C223.099 20.0464 222.458 19.5593 221.495 19.5593C220.536 19.5593 219.869 20.0566 219.869 20.7796C219.869 21.3384 220.279 21.6716 221.284 21.9331L222.059 22.1382C223.592 22.5227 224.212 23.1123 224.212 24.1736C224.212 25.5271 223.145 26.373 221.444 26.373C219.875 26.373 218.788 25.522 218.701 24.2146ZM225.196 26.25V18.8518H226.089V21.7691H226.109C226.406 21.1743 226.991 20.8257 227.801 20.8257C228.97 20.8257 229.677 21.6152 229.677 22.8047V26.25H228.785V22.9688C228.785 22.1228 228.36 21.6152 227.524 21.6152C226.637 21.6152 226.089 22.2202 226.089 23.143V26.25H225.196ZM232.569 25.5835C233.41 25.5835 234.055 24.9939 234.055 24.2249V23.7891L232.63 23.8762C231.913 23.9223 231.503 24.2402 231.503 24.7427C231.503 25.2503 231.928 25.5835 232.569 25.5835ZM232.369 26.3423C231.308 26.3423 230.595 25.7014 230.595 24.7427C230.595 23.8301 231.297 23.2559 232.528 23.1841L234.055 23.0969V22.6509C234.055 21.9997 233.625 21.6101 232.887 21.6101C232.2 21.6101 231.769 21.9331 231.656 22.4561H230.795C230.856 21.5332 231.646 20.8257 232.907 20.8257C234.158 20.8257 234.948 21.5024 234.948 22.5637V26.25H234.102V25.3323H234.081C233.763 25.9424 233.087 26.3423 232.369 26.3423ZM236.081 26.25V20.918H236.921V21.7691H236.942C237.24 21.1948 237.809 20.8257 238.634 20.8257C239.803 20.8257 240.48 21.5793 240.48 22.7893V26.25H239.588V22.9483C239.588 22.0869 239.183 21.6152 238.362 21.6152C237.522 21.6152 236.973 22.21 236.973 23.1123V26.25H236.081ZM243.756 21.5999C242.92 21.5999 242.335 22.2407 242.28 23.1277H245.176C245.155 22.2356 244.597 21.5999 243.756 21.5999ZM245.155 24.7222H246.032C245.878 25.6553 244.976 26.3423 243.812 26.3423C242.284 26.3423 241.356 25.281 241.356 23.6045C241.356 21.9485 242.3 20.8257 243.771 20.8257C245.212 20.8257 246.099 21.8716 246.099 23.4866V23.825H242.274V23.8762C242.274 24.8965 242.874 25.5681 243.833 25.5681C244.51 25.5681 245.007 25.2246 245.155 24.7222Z" fill="white"/>
<path d="M255.937 0.328125H38.0625C33.8945 0.328125 30.5156 3.70698 30.5156 7.875V36.75C30.5156 40.918 33.8945 44.2969 38.0625 44.2969H255.937C260.105 44.2969 263.484 40.918 263.484 36.75V7.875C263.484 3.70698 260.105 0.328125 255.937 0.328125Z" stroke="white" stroke-opacity="0.04"/>
<path d="M255.937 0.328125H38.0625C33.8945 0.328125 30.5156 3.70698 30.5156 7.875V36.75C30.5156 40.918 33.8945 44.2969 38.0625 44.2969H255.937C260.105 44.2969 263.484 40.918 263.484 36.75V7.875C263.484 3.70698 260.105 0.328125 255.937 0.328125Z" stroke="url(#paint0_linear_2_937)" stroke-opacity="0.12"/>
<path d="M283.5 52.5H10.5C4.70101 52.5 0 57.201 0 63V91.875C0 97.674 4.70101 102.375 10.5 102.375H283.5C289.299 102.375 294 97.674 294 91.875V63C294 57.201 289.299 52.5 283.5 52.5Z" fill="#202020"/>
<path d="M39.375 63H21C18.1005 63 15.75 65.3505 15.75 68.25V86.625C15.75 89.5245 18.1005 91.875 21 91.875H39.375C42.2745 91.875 44.625 89.5245 44.625 86.625V68.25C44.625 65.3505 42.2745 63 39.375 63Z" fill="#2B2B2B"/>
<path fill-rule="evenodd" clip-rule="evenodd" d="M26.0626 73.9376V79.5C26.0626 79.7441 25.8646 79.9416 25.6206 79.9416C25.3765 79.9416 25.1786 79.7441 25.1786 79.5V72.8705C25.1786 72.7531 25.2252 72.6409 25.3081 72.5582C25.391 72.4748 25.5034 72.4282 25.6206 72.4282H32.25C32.4941 72.4282 32.692 72.6264 32.692 72.8705C32.692 73.1147 32.4941 73.3122 32.25 73.3122H26.6876L34.7724 81.3972C34.945 81.5698 34.945 81.8493 34.7724 82.0219C34.5998 82.1945 34.32 82.1945 34.1474 82.0219L26.0626 73.9376Z" fill="white"/>
<path d="M59.611 78.9036V81.839H58.5729V78.9036H55.8364V77.8654H58.5729V75.0008H59.611V77.8654H62.3476V78.9036H59.611ZM70.1728 82.9093H69.3138V82.0503C67.5832 81.9223 66.4427 80.9287 66.4361 79.5001H67.532C67.6029 80.3585 68.2566 80.9287 69.3138 81.0574V77.7249L68.8012 77.5838C67.4297 77.2249 66.6606 76.3849 66.6606 75.1931C66.6606 73.7894 67.6797 72.8346 69.3138 72.6744V71.7773H70.1728V72.6679C71.7747 72.8031 72.826 73.796 72.8706 75.1807H71.7813C71.7557 74.3859 71.1211 73.7769 70.1728 73.6614V76.795L70.7175 76.9302C72.2813 77.3463 73.0308 78.122 73.0308 79.4167C73.0308 80.9353 71.9735 81.8967 70.1728 82.0444V82.9093ZM71.9224 79.506C71.9224 78.6601 71.3836 78.1541 70.1728 77.8975V81.0764C71.2878 81.0187 71.9224 80.4418 71.9224 79.506ZM67.7631 75.1288C67.7631 75.892 68.3012 76.398 69.3138 76.6093V73.6614C68.4167 73.7126 67.7631 74.3216 67.7631 75.1288ZM76.3442 77.763V76.7891H77.4526C78.517 76.7891 79.2599 76.1033 79.2599 75.1675C79.2599 74.2514 78.6384 73.6293 77.4657 73.6293C76.4019 73.6293 75.6971 74.2383 75.5941 75.2062H74.4857C74.6136 73.6358 75.7805 72.6298 77.5169 72.6298C79.1706 72.6298 80.4201 73.6234 80.4201 75.014C80.4201 76.1736 79.6766 77.007 78.5229 77.2117V77.2373C79.9201 77.3207 80.8172 78.1863 80.8172 79.487C80.8172 81.0764 79.3688 82.1848 77.5556 82.1848C75.6197 82.1848 74.3833 81.1151 74.3 79.5834H75.4084C75.5107 80.5317 76.2996 81.1853 77.5425 81.1853C78.7664 81.1853 79.6445 80.493 79.6445 79.5257C79.6445 78.4357 78.8241 77.763 77.5044 77.763H76.3442ZM85.4634 82.1848C83.3037 82.1848 82.0542 80.3263 82.0542 77.404C82.0542 74.5073 83.3168 72.6298 85.4634 72.6298C87.6107 72.6298 88.8602 74.4949 88.8602 77.3975C88.8602 80.3204 87.6172 82.1848 85.4634 82.1848ZM85.4634 81.1788C86.9059 81.1788 87.7006 79.7114 87.7006 77.404C87.7006 75.1288 86.8927 73.6424 85.4634 73.6424C84.0348 73.6424 83.2145 75.1419 83.2145 77.3975C83.2145 79.7048 84.0151 81.1788 85.4634 81.1788ZM93.4231 82.1848C91.2634 82.1848 90.0139 80.3263 90.0139 77.404C90.0139 74.5073 91.2765 72.6298 93.4231 72.6298C95.5703 72.6298 96.8198 74.4949 96.8198 77.3975C96.8198 80.3204 95.5769 82.1848 93.4231 82.1848ZM93.4231 81.1788C94.8655 81.1788 95.6602 79.7114 95.6602 77.404C95.6602 75.1288 94.8524 73.6424 93.4231 73.6424C91.9944 73.6424 91.1741 75.1419 91.1741 77.3975C91.1741 79.7048 91.9747 81.1788 93.4231 81.1788ZM98.8063 82.0956C98.3968 82.0956 98.0759 81.7747 98.0759 81.3645C98.0759 80.9543 98.3968 80.6341 98.8063 80.6341C99.2171 80.6341 99.5374 80.9543 99.5374 81.3645C99.5374 81.7747 99.2171 82.0956 98.8063 82.0956ZM104.529 82.1848C102.761 82.1848 101.454 81.083 101.357 79.506H102.492C102.594 80.493 103.434 81.1722 104.543 81.1722C105.799 81.1722 106.67 80.3007 106.67 79.0578C106.67 77.8142 105.792 76.9237 104.562 76.9237C103.697 76.9237 102.96 77.3141 102.581 77.9618H101.498L102.005 72.7834H107.298V73.8091H102.953L102.671 76.8213H102.697C103.113 76.2635 103.882 75.9301 104.767 75.9301C106.542 75.9301 107.824 77.2314 107.824 79.0256C107.824 80.8841 106.459 82.1848 104.529 82.1848ZM108.971 75.4497C108.971 73.8347 110.278 72.6298 112.021 72.6298C113.675 72.6298 114.976 73.7513 114.976 75.1675C114.976 76.1992 114.508 76.9683 112.964 78.5643L110.624 80.9799V81.0062H115.13V82.0312H109.029V81.2365L112.284 77.8076C113.527 76.5004 113.822 76.0069 113.822 75.2378C113.822 74.3472 113.008 73.6358 111.989 73.6358C110.906 73.6358 110.086 74.4174 110.086 75.4497V75.4556H108.971V75.4497ZM120.455 73.8091V77.3528H122.666C123.852 77.3528 124.525 76.7123 124.525 75.5777C124.525 74.4693 123.807 73.8091 122.615 73.8091H120.455ZM120.455 78.372V82.0312H119.302V72.7834H122.769C124.55 72.7834 125.716 73.8728 125.716 75.539C125.716 76.8272 125.018 77.8273 123.858 78.1922L125.999 82.0312H124.647L122.666 78.372H120.455ZM129.671 76.2188C128.626 76.2188 127.896 77.0195 127.825 78.1285H131.446C131.421 77.0136 130.722 76.2188 129.671 76.2188ZM131.421 80.1216H132.517C132.324 81.2877 131.196 82.1468 129.741 82.1468C127.832 82.1468 126.671 80.8198 126.671 78.7244C126.671 76.6546 127.851 75.2509 129.69 75.2509C131.491 75.2509 132.6 76.5581 132.6 78.5767V79H127.818V79.0643C127.818 80.3394 128.569 81.1788 129.767 81.1788C130.613 81.1788 131.235 80.7496 131.421 80.1216ZM139.265 77.5517H138.175C138.015 76.8272 137.451 76.2313 136.47 76.2313C135.317 76.2313 134.535 77.1862 134.535 78.6988C134.535 80.2495 135.33 81.1663 136.484 81.1663C137.393 81.1663 137.99 80.6853 138.181 79.8847H139.277C139.105 81.2109 137.99 82.1468 136.477 82.1468C134.631 82.1468 133.401 80.8454 133.401 78.6988C133.401 76.5968 134.625 75.2509 136.464 75.2509C138.13 75.2509 139.124 76.3534 139.265 77.5517ZM142.975 76.2188C141.93 76.2188 141.2 77.0195 141.13 78.1285H144.75C144.725 77.0136 144.027 76.2188 142.975 76.2188ZM144.725 80.1216H145.821C145.628 81.2877 144.5 82.1468 143.046 82.1468C141.136 82.1468 139.976 80.8198 139.976 78.7244C139.976 76.6546 141.155 75.2509 142.994 75.2509C144.796 75.2509 145.904 76.5581 145.904 78.5767V79H141.123V79.0643C141.123 80.3394 141.873 81.1788 143.072 81.1788C143.918 81.1788 144.539 80.7496 144.725 80.1216ZM147.09 82.0312V75.3664H148.205V82.0312H147.09ZM147.647 74.2448C147.269 74.2448 146.955 73.9305 146.955 73.5525C146.955 73.1679 147.269 72.8602 147.647 72.8602C148.032 72.8602 148.346 73.1679 148.346 73.5525C148.346 73.9305 148.032 74.2448 147.647 74.2448ZM155.178 75.3664L152.729 82.0312H151.588L149.134 75.3664H150.307L152.146 80.8454H152.172L154.017 75.3664H155.178ZM158.536 76.2188C157.491 76.2188 156.76 77.0195 156.69 78.1285H160.311C160.285 77.0136 159.587 76.2188 158.536 76.2188ZM160.285 80.1216H161.381C161.189 81.2877 160.061 82.1468 158.606 82.1468C156.696 82.1468 155.536 80.8198 155.536 78.7244C155.536 76.6546 156.716 75.2509 158.555 75.2509C160.356 75.2509 161.464 76.5581 161.464 78.5767V79H156.684V79.0643C156.684 80.3394 157.433 81.1788 158.632 81.1788C159.478 81.1788 160.099 80.7496 160.285 80.1216ZM165.117 82.1468C163.419 82.1468 162.266 80.7877 162.266 78.6988C162.266 76.6093 163.413 75.2509 165.091 75.2509C166.046 75.2509 166.815 75.7188 167.213 76.4492H167.239V72.7834H168.354V82.0312H167.29V80.9032H167.271C166.841 81.6723 166.078 82.1468 165.117 82.1468ZM165.329 76.2313C164.15 76.2313 163.406 77.1927 163.406 78.6988C163.406 80.2115 164.15 81.1663 165.329 81.1663C166.476 81.1663 167.245 80.1918 167.245 78.6988C167.245 77.2117 166.476 76.2313 165.329 76.2313ZM172.91 82.0312V76.2825H171.981V75.3664H172.91V74.6228C172.91 73.3412 173.507 72.7322 174.737 72.7322C174.986 72.7322 175.256 72.7578 175.416 72.7834V73.687C175.282 73.668 175.095 73.649 174.91 73.649C174.307 73.649 174.019 73.9692 174.019 74.6294V75.3664H175.384V76.2825H174.026V82.0312H172.91ZM176.538 82.0312V75.3664H177.588V76.4557H177.614C177.832 75.7188 178.447 75.2509 179.229 75.2509C179.421 75.2509 179.588 75.283 179.678 75.2955V76.379C179.588 76.3468 179.351 76.3147 179.082 76.3147C178.216 76.3147 177.653 76.9361 177.653 77.8785V82.0312H176.538ZM183.029 82.1468C181.184 82.1468 179.94 80.8198 179.94 78.6988C179.94 76.5712 181.184 75.2509 183.029 75.2509C184.869 75.2509 186.112 76.5712 186.112 78.6988C186.112 80.8198 184.869 82.1468 183.029 82.1468ZM183.029 81.1663C184.209 81.1663 184.978 80.2686 184.978 78.6988C184.978 77.1284 184.209 76.2313 183.029 76.2313C181.85 76.2313 181.075 77.1284 181.075 78.6988C181.075 80.2686 181.85 81.1663 183.029 81.1663ZM187.24 82.0312V75.3664H188.291V76.4302H188.317C188.631 75.7253 189.31 75.2509 190.207 75.2509C191.118 75.2509 191.79 75.7122 192.078 76.5201H192.104C192.476 75.7253 193.258 75.2509 194.194 75.2509C195.514 75.2509 196.366 76.1099 196.366 77.4296V82.0312H195.251V77.6862C195.251 76.776 194.745 76.2379 193.867 76.2379C192.982 76.2379 192.361 76.8915 192.361 77.7952V82.0312H191.246V77.5642C191.246 76.7635 190.708 76.2379 189.881 76.2379C188.996 76.2379 188.356 76.9302 188.356 77.8529V82.0312H187.24ZM204.461 82.1848C201.91 82.1848 200.295 80.3329 200.295 77.404C200.295 74.5008 201.929 72.6298 204.461 72.6298C206.473 72.6298 208.004 73.8537 208.299 75.6997H207.133C206.838 74.4883 205.78 73.6936 204.461 73.6936C202.653 73.6936 201.481 75.1544 201.481 77.404C201.481 79.6727 202.64 81.121 204.466 81.121C205.826 81.121 206.799 80.4674 207.133 79.3393H208.299C207.876 81.1663 206.505 82.1848 204.461 82.1848ZM212.254 82.1468C210.407 82.1468 209.165 80.8198 209.165 78.6988C209.165 76.5712 210.407 75.2509 212.254 75.2509C214.092 75.2509 215.336 76.5712 215.336 78.6988C215.336 80.8198 214.092 82.1468 212.254 82.1468ZM212.254 81.1663C213.432 81.1663 214.201 80.2686 214.201 78.6988C214.201 77.1284 213.432 76.2313 212.254 76.2313C211.074 76.2313 210.299 77.1284 210.299 78.6988C210.299 80.2686 211.074 81.1663 212.254 81.1663ZM219.226 82.1468C217.38 82.1468 216.137 80.8198 216.137 78.6988C216.137 76.5712 217.38 75.2509 219.226 75.2509C221.065 75.2509 222.309 76.5712 222.309 78.6988C222.309 80.8198 221.065 82.1468 219.226 82.1468ZM219.226 81.1663C220.405 81.1663 221.174 80.2686 221.174 78.6988C221.174 77.1284 220.405 76.2313 219.226 76.2313C218.047 76.2313 217.271 77.1284 217.271 78.6988C217.271 80.2686 218.047 81.1663 219.226 81.1663ZM226.673 75.2509C228.371 75.2509 229.525 76.6093 229.525 78.6988C229.525 80.7877 228.378 82.1468 226.698 82.1468C225.743 82.1468 224.974 81.6788 224.577 80.9484H224.552V84.2553H223.437V75.3664H224.494V76.4938H224.52C224.93 75.7444 225.705 75.2509 226.673 75.2509ZM226.455 81.1663C227.641 81.1663 228.384 80.2115 228.384 78.6988C228.384 77.1927 227.641 76.2313 226.455 76.2313C225.314 76.2313 224.545 77.2183 224.545 78.6988C224.545 80.1859 225.314 81.1663 226.455 81.1663ZM233.325 76.2188C232.28 76.2188 231.55 77.0195 231.479 78.1285H235.1C235.075 77.0136 234.376 76.2188 233.325 76.2188ZM235.075 80.1216H236.171C235.978 81.2877 234.85 82.1468 233.395 82.1468C231.486 82.1468 230.326 80.8198 230.326 78.7244C230.326 76.6546 231.505 75.2509 233.344 75.2509C235.145 75.2509 236.254 76.5581 236.254 78.5767V79H231.473V79.0643C231.473 80.3394 232.223 81.1788 233.421 81.1788C234.267 81.1788 234.889 80.7496 235.075 80.1216ZM237.382 82.0312V75.3664H238.433V76.4557H238.458C238.676 75.7188 239.292 75.2509 240.073 75.2509C240.266 75.2509 240.432 75.283 240.522 75.2955V76.379C240.432 76.3468 240.195 76.3147 239.926 76.3147C239.061 76.3147 238.497 76.9361 238.497 77.8785V82.0312H237.382ZM245.451 82.0312H244.297V72.7834H245.451V77.2951H245.514L249.597 72.7834H251.052L247.251 76.8784L251.391 82.0312H249.917L246.45 77.6987L245.451 78.8012V82.0312ZM252.199 82.0312V75.3664H253.249V76.4557H253.275C253.493 75.7188 254.108 75.2509 254.89 75.2509C255.082 75.2509 255.249 75.283 255.339 75.2955V76.379C255.249 76.3468 255.012 76.3147 254.743 76.3147C253.877 76.3147 253.314 76.9361 253.314 77.8785V82.0312H252.199ZM256.306 82.0312V75.3664H257.422V82.0312H256.306ZM256.864 74.2448C256.486 74.2448 256.172 73.9305 256.172 73.5525C256.172 73.1679 256.486 72.8602 256.864 72.8602C257.249 72.8602 257.563 73.1679 257.563 73.5525C257.563 73.9305 257.249 74.2448 256.864 74.2448ZM258.812 77.2052C258.812 76.0646 259.832 75.2509 261.299 75.2509C262.677 75.2509 263.689 76.0712 263.741 77.1993H262.677C262.6 76.5581 262.081 76.1611 261.26 76.1611C260.447 76.1611 259.908 76.5647 259.908 77.1481C259.908 77.6094 260.261 77.9166 261.017 78.1088L262.048 78.3589C263.394 78.6988 263.881 79.1857 263.881 80.1662C263.881 81.3264 262.786 82.1468 261.228 82.1468C259.767 82.1468 258.748 81.352 258.633 80.1727H259.748C259.87 80.8651 260.395 81.2365 261.299 81.2365C262.203 81.2365 262.76 80.852 262.76 80.2495C262.76 79.7751 262.485 79.5191 261.735 79.3203L260.562 79.0191C259.389 78.7178 258.812 78.1154 258.812 77.2052ZM265.401 73.7579H266.516V75.3664H267.81V76.2825H266.516V80.243C266.516 80.852 266.772 81.1276 267.342 81.1276C267.47 81.1276 267.727 81.1086 267.804 81.0954V82.0312C267.669 82.0634 267.361 82.0824 267.099 82.0824C265.875 82.0824 265.401 81.5824 265.401 80.3007V76.2825H264.407V75.3664H265.401V73.7579ZM269.06 82.0312V75.3664H270.175V82.0312H269.06ZM269.618 74.2448C269.24 74.2448 268.925 73.9305 268.925 73.5525C268.925 73.1679 269.24 72.8602 269.618 72.8602C270.002 72.8602 270.316 73.1679 270.316 73.5525C270.316 73.9305 270.002 74.2448 269.618 74.2448ZM271.681 82.0312V75.3664H272.732V76.4302H272.758C273.129 75.7122 273.841 75.2509 274.873 75.2509C276.334 75.2509 277.18 76.1932 277.18 77.7052V82.0312H276.065V77.9041C276.065 76.8272 275.558 76.2379 274.533 76.2379C273.482 76.2379 272.796 76.9814 272.796 78.1088V82.0312H271.681Z" fill="white"/>
<path d="M283.5 52.8281H10.5C4.88223 52.8281 0.328125 57.3822 0.328125 63V91.875C0.328125 97.4928 4.88223 102.047 10.5 102.047H283.5C289.118 102.047 293.672 97.4928 293.672 91.875V63C293.672 57.3822 289.118 52.8281 283.5 52.8281Z" stroke="white" stroke-opacity="0.04"/>
<path d="M283.5 52.8281H10.5C4.88223 52.8281 0.328125 57.3822 0.328125 63V91.875C0.328125 97.4928 4.88223 102.047 10.5 102.047H283.5C289.118 102.047 293.672 97.4928 293.672 91.875V63C293.672 57.3822 289.118 52.8281 283.5 52.8281Z" stroke="url(#paint1_linear_2_937)" stroke-opacity="0.12"/>
<path d="M255.938 110.25H38.0625C33.7133 110.25 30.1875 113.776 30.1875 118.125V147C30.1875 151.349 33.7133 154.875 38.0625 154.875H255.938C260.287 154.875 263.813 151.349 263.813 147V118.125C263.813 113.776 260.287 110.25 255.938 110.25Z" fill="#202020"/>
<path d="M59.0625 120.75H45.9375C43.038 120.75 40.6875 123.101 40.6875 126V139.125C40.6875 142.024 43.038 144.375 45.9375 144.375H59.0625C61.962 144.375 64.3125 142.024 64.3125 139.125V126C64.3125 123.101 61.962 120.75 59.0625 120.75Z" fill="#2B2B2B"/>
<path fill-rule="evenodd" clip-rule="evenodd" d="M48.7032 129.063V134.625C48.7032 134.869 48.5053 135.067 48.2612 135.067C48.0171 135.067 47.8192 134.869 47.8192 134.625V127.996C47.8192 127.878 47.8658 127.766 47.9487 127.683C48.0316 127.6 48.144 127.553 48.2612 127.553H54.8906C55.1348 127.553 55.3326 127.751 55.3326 127.996C55.3326 128.24 55.1348 128.437 54.8906 128.437H49.3282L57.413 136.522C57.5856 136.695 57.5856 136.974 57.413 137.147C57.2404 137.32 56.9606 137.32 56.788 137.147L48.7032 129.063Z" fill="white"/>
<path d="M78.4015 133.998V136.346H77.5707V133.998H75.3814V133.168H77.5707V130.876H78.4015V133.168H80.5907V133.998H78.4015ZM86.8507 137.202H86.1636V136.515C84.7796 136.413 83.8667 135.618 83.8615 134.475H84.7382C84.7947 135.162 85.3177 135.618 86.1636 135.72V133.055L85.7534 132.942C84.6562 132.655 84.0406 131.983 84.0406 131.03C84.0406 129.907 84.8563 129.143 86.1636 129.015V128.297H86.8507V129.01C88.1323 129.117 88.973 129.912 89.0091 131.019H88.1376C88.1166 130.384 87.6093 129.897 86.8507 129.804V132.311L87.2864 132.419C88.5373 132.752 89.1371 133.372 89.1371 134.408C89.1371 135.623 88.2912 136.392 86.8507 136.511V137.202ZM88.2505 134.48C88.2505 133.803 87.8193 133.398 86.8507 133.193V135.736C87.7425 135.69 88.2505 135.228 88.2505 134.48ZM84.9226 130.978C84.9226 131.589 85.3531 131.994 86.1636 132.163V129.804C85.4457 129.845 84.9226 130.333 84.9226 130.978ZM92.8232 136.623C91.4084 136.623 90.3623 135.741 90.2855 134.48H91.1931C91.2751 135.27 91.9465 135.813 92.8337 135.813C93.8384 135.813 94.536 135.116 94.536 134.121C94.536 133.126 93.8332 132.414 92.8488 132.414C92.1571 132.414 91.5672 132.727 91.2646 133.244H90.3984L90.8033 129.102H95.0381V129.922H91.5619L91.3368 132.331H91.3572C91.6905 131.886 92.3054 131.619 93.0129 131.619C94.433 131.619 95.4587 132.66 95.4587 134.095C95.4587 135.583 94.3667 136.623 92.8232 136.623ZM99.0117 136.623C97.2838 136.623 96.2843 135.136 96.2843 132.798C96.2843 130.481 97.2943 128.979 99.0117 128.979C100.729 128.979 101.729 130.47 101.729 132.794C101.729 135.131 100.734 136.623 99.0117 136.623ZM99.0117 135.818C100.165 135.818 100.801 134.644 100.801 132.798C100.801 130.978 100.155 129.789 99.0117 129.789C97.8685 129.789 97.2122 130.989 97.2122 132.794C97.2122 134.639 97.8527 135.818 99.0117 135.818ZM103.319 136.551C102.991 136.551 102.734 136.295 102.734 135.967C102.734 135.639 102.991 135.382 103.319 135.382C103.647 135.382 103.903 135.639 103.903 135.967C103.903 136.295 103.647 136.551 103.319 136.551ZM107.84 136.623C106.112 136.623 105.113 135.136 105.113 132.798C105.113 130.481 106.123 128.979 107.84 128.979C109.558 128.979 110.558 130.47 110.558 132.794C110.558 135.131 109.563 136.623 107.84 136.623ZM107.84 135.818C108.994 135.818 109.63 134.644 109.63 132.798C109.63 130.978 108.983 129.789 107.84 129.789C106.697 129.789 106.041 130.989 106.041 132.794C106.041 134.639 106.681 135.818 107.84 135.818ZM114.208 136.623C112.48 136.623 111.48 135.136 111.48 132.798C111.48 130.481 112.49 128.979 114.208 128.979C115.925 128.979 116.925 130.47 116.925 132.794C116.925 135.131 115.93 136.623 114.208 136.623ZM114.208 135.818C115.361 135.818 115.997 134.644 115.997 132.798C115.997 130.978 115.351 129.789 114.208 129.789C113.065 129.789 112.408 130.989 112.408 132.794C112.408 134.639 113.05 135.818 114.208 135.818ZM121.18 129.922V132.757H122.95C123.898 132.757 124.436 132.245 124.436 131.337C124.436 130.45 123.862 129.922 122.908 129.922H121.18ZM121.18 133.572V136.5H120.258V129.102H123.032C124.456 129.102 125.39 129.974 125.39 131.306C125.39 132.337 124.831 133.137 123.903 133.429L125.615 136.5H124.534L122.95 133.572H121.18ZM128.553 131.85C127.717 131.85 127.133 132.491 127.077 133.378H129.974C129.953 132.486 129.394 131.85 128.553 131.85ZM129.953 134.972H130.829C130.676 135.905 129.773 136.593 128.61 136.593C127.081 136.593 126.154 135.531 126.154 133.855C126.154 132.198 127.097 131.075 128.569 131.075C130.009 131.075 130.896 132.122 130.896 133.737V134.075H127.072V134.126C127.072 135.147 127.671 135.818 128.63 135.818C129.307 135.818 129.804 135.475 129.953 134.972ZM136.228 132.916H135.357C135.228 132.337 134.777 131.86 133.993 131.86C133.07 131.86 132.444 132.624 132.444 133.834C132.444 135.075 133.08 135.808 134.003 135.808C134.731 135.808 135.208 135.423 135.362 134.783H136.239C136.1 135.844 135.208 136.593 133.998 136.593C132.522 136.593 131.537 135.552 131.537 133.834C131.537 132.152 132.517 131.075 133.988 131.075C135.321 131.075 136.115 131.957 136.228 132.916ZM139.196 131.85C138.361 131.85 137.776 132.491 137.72 133.378H140.617C140.596 132.486 140.038 131.85 139.196 131.85ZM140.596 134.972H141.473C141.319 135.905 140.417 136.593 139.253 136.593C137.725 136.593 136.797 135.531 136.797 133.855C136.797 132.198 137.741 131.075 139.212 131.075C140.653 131.075 141.54 132.122 141.54 133.737V134.075H137.715V134.126C137.715 135.147 138.315 135.818 139.274 135.818C139.951 135.818 140.448 135.475 140.596 134.972ZM142.488 136.5V131.168H143.38V136.5H142.488ZM142.934 130.271C142.632 130.271 142.381 130.02 142.381 129.717C142.381 129.409 142.632 129.163 142.934 129.163C143.242 129.163 143.493 129.409 143.493 129.717C143.493 130.02 143.242 130.271 142.934 130.271ZM148.958 131.168L147 136.5H146.087L144.124 131.168H145.062L146.533 135.552H146.554L148.03 131.168H148.958ZM151.645 131.85C150.809 131.85 150.225 132.491 150.168 133.378H153.065C153.045 132.486 152.486 131.85 151.645 131.85ZM153.045 134.972H153.921C153.767 135.905 152.866 136.593 151.701 136.593C150.174 136.593 149.246 135.531 149.246 133.855C149.246 132.198 150.189 131.075 151.661 131.075C153.101 131.075 153.988 132.122 153.988 133.737V134.075H150.163V134.126C150.163 135.147 150.763 135.818 151.722 135.818C152.399 135.818 152.896 135.475 153.045 134.972ZM156.911 136.593C155.552 136.593 154.629 135.505 154.629 133.834C154.629 132.163 155.546 131.075 156.89 131.075C157.654 131.075 158.269 131.45 158.587 132.034H158.608V129.102H159.5V136.5H158.648V135.598H158.633C158.289 136.213 157.679 136.593 156.911 136.593ZM157.079 131.86C156.136 131.86 155.542 132.629 155.542 133.834C155.542 135.044 156.136 135.808 157.079 135.808C157.997 135.808 158.612 135.029 158.612 133.834C158.612 132.645 157.997 131.86 157.079 131.86ZM163.145 136.5V131.901H162.401V131.168H163.145V130.573C163.145 129.548 163.621 129.061 164.606 129.061C164.806 129.061 165.021 129.081 165.149 129.102V129.825C165.042 129.81 164.893 129.794 164.744 129.794C164.263 129.794 164.032 130.05 164.032 130.579V131.168H165.124V131.901H164.037V136.5H163.145ZM166.046 136.5V131.168H166.888V132.039H166.908C167.083 131.45 167.575 131.075 168.2 131.075C168.354 131.075 168.487 131.101 168.559 131.112V131.978C168.487 131.952 168.297 131.927 168.082 131.927C167.39 131.927 166.939 132.424 166.939 133.178V136.5H166.046ZM171.241 136.593C169.764 136.593 168.769 135.531 168.769 133.834C168.769 132.132 169.764 131.075 171.241 131.075C172.712 131.075 173.706 132.132 173.706 133.834C173.706 135.531 172.712 136.593 171.241 136.593ZM171.241 135.808C172.184 135.808 172.798 135.09 172.798 133.834C172.798 132.578 172.184 131.86 171.241 131.86C170.297 131.86 169.677 132.578 169.677 133.834C169.677 135.09 170.297 135.808 171.241 135.808ZM174.608 136.5V131.168H175.45V132.019H175.47C175.721 131.455 176.265 131.075 176.983 131.075C177.71 131.075 178.249 131.445 178.48 132.091H178.5C178.797 131.455 179.423 131.075 180.171 131.075C181.227 131.075 181.909 131.763 181.909 132.819V136.5H181.017V133.024C181.017 132.296 180.612 131.866 179.91 131.866C179.202 131.866 178.705 132.388 178.705 133.111V136.5H177.813V132.927C177.813 132.286 177.382 131.866 176.721 131.866C176.013 131.866 175.501 132.419 175.501 133.157V136.5H174.608ZM192.63 136.5H191.769V130.798H191.733L189.374 136.449H188.595L186.236 130.798H186.2V136.5H185.339V129.102H186.411L188.964 135.275H189.005L191.558 129.102H192.63V136.5ZM193.973 136.5V131.168H194.866V136.5H193.973ZM194.419 130.271C194.117 130.271 193.865 130.02 193.865 129.717C193.865 129.409 194.117 129.163 194.419 129.163C194.727 129.163 194.978 129.409 194.978 129.717C194.978 130.02 194.727 130.271 194.419 130.271ZM196.116 136.5V129.102H197.008V136.5H196.116ZM200.351 131.85C199.515 131.85 198.931 132.491 198.875 133.378H201.771C201.751 132.486 201.192 131.85 200.351 131.85ZM201.751 134.972H202.628C202.473 135.905 201.571 136.593 200.408 136.593C198.88 136.593 197.952 135.531 197.952 133.855C197.952 132.198 198.895 131.075 200.366 131.075C201.807 131.075 202.694 132.122 202.694 133.737V134.075H198.869V134.126C198.869 135.147 199.469 135.818 200.428 135.818C201.104 135.818 201.602 135.475 201.751 134.972ZM203.504 132.639C203.504 131.727 204.319 131.075 205.493 131.075C206.595 131.075 207.406 131.732 207.447 132.634H206.595C206.534 132.121 206.119 131.804 205.463 131.804C204.812 131.804 204.381 132.127 204.381 132.593C204.381 132.962 204.663 133.208 205.268 133.362L206.093 133.562C207.17 133.834 207.559 134.223 207.559 135.008C207.559 135.936 206.683 136.593 205.437 136.593C204.268 136.593 203.453 135.957 203.361 135.013H204.253C204.35 135.567 204.77 135.864 205.493 135.864C206.216 135.864 206.662 135.556 206.662 135.075C206.662 134.695 206.442 134.491 205.842 134.331L204.904 134.09C203.966 133.849 203.504 133.368 203.504 132.639ZM215.363 135.669V136.5H210.78V129.102H215.363V129.932H211.702V132.306H215.173V133.126H211.702V135.669H215.363ZM216.352 132.639C216.352 131.727 217.168 131.075 218.342 131.075C219.444 131.075 220.254 131.732 220.295 132.634H219.444C219.382 132.121 218.967 131.804 218.311 131.804C217.66 131.804 217.229 132.127 217.229 132.593C217.229 132.962 217.511 133.208 218.116 133.362L218.941 133.562C220.018 133.834 220.407 134.223 220.407 135.008C220.407 135.936 219.531 136.593 218.285 136.593C217.116 136.593 216.301 135.957 216.209 135.013H217.101C217.198 135.567 217.618 135.864 218.342 135.864C219.064 135.864 219.51 135.556 219.51 135.075C219.51 134.695 219.29 134.491 218.69 134.331L217.752 134.09C216.814 133.849 216.352 133.368 216.352 132.639ZM221.623 129.881H222.515V131.168H223.55V131.901H222.515V135.069C222.515 135.556 222.72 135.777 223.176 135.777C223.279 135.777 223.484 135.762 223.546 135.751V136.5C223.438 136.526 223.192 136.541 222.981 136.541C222.002 136.541 221.623 136.141 221.623 135.116V131.901H220.828V131.168H221.623V129.881ZM224.55 136.5V129.102H225.442V132.019H225.463C225.76 131.425 226.345 131.075 227.155 131.075C228.324 131.075 229.031 131.866 229.031 133.055V136.5H228.139V133.219C228.139 132.373 227.713 131.866 226.878 131.866C225.991 131.866 225.442 132.47 225.442 133.393V136.5H224.55ZM232.302 131.85C231.467 131.85 230.882 132.491 230.825 133.378H233.722C233.702 132.486 233.143 131.85 232.302 131.85ZM233.702 134.972H234.579C234.425 135.905 233.523 136.593 232.358 136.593C230.831 136.593 229.903 135.531 229.903 133.855C229.903 132.198 230.846 131.075 232.318 131.075C233.758 131.075 234.645 132.122 234.645 133.737V134.075H230.821V134.126C230.821 135.147 231.421 135.818 232.379 135.818C233.056 135.818 233.553 135.475 233.702 134.972ZM235.548 136.5V131.168H236.388V132.039H236.409C236.583 131.45 237.076 131.075 237.701 131.075C237.854 131.075 237.988 131.101 238.06 131.112V131.978C237.988 131.952 237.798 131.927 237.583 131.927C236.891 131.927 236.44 132.424 236.44 133.178V136.5H235.548Z" fill="white"/>
<path d="M255.937 110.578H38.0625C33.8945 110.578 30.5156 113.957 30.5156 118.125V147C30.5156 151.168 33.8945 154.547 38.0625 154.547H255.937C260.105 154.547 263.484 151.168 263.484 147V118.125C263.484 113.957 260.105 110.578 255.937 110.578Z" stroke="white" stroke-opacity="0.04"/>
<path d="M255.937 110.578H38.0625C33.8945 110.578 30.5156 113.957 30.5156 118.125V147C30.5156 151.168 33.8945 154.547 38.0625 154.547H255.937C260.105 154.547 263.484 151.168 263.484 147V118.125C263.484 113.957 260.105 110.578 255.937 110.578Z" stroke="url(#paint2_linear_2_937)" stroke-opacity="0.12"/>
</g>
<defs>
<linearGradient id="paint0_linear_2_937" x1="147" y1="1.37715e-08" x2="147" y2="33.0397" gradientUnits="userSpaceOnUse">
<stop stop-color="white"/>
<stop offset="1" stop-color="white" stop-opacity="0"/>
</linearGradient>
<linearGradient id="paint1_linear_2_937" x1="147" y1="52.5" x2="147" y2="89.4265" gradientUnits="userSpaceOnUse">
<stop stop-color="white"/>
<stop offset="1" stop-color="white" stop-opacity="0"/>
</linearGradient>
<linearGradient id="paint2_linear_2_937" x1="147" y1="110.25" x2="147" y2="143.29" gradientUnits="userSpaceOnUse">
<stop stop-color="white"/>
<stop offset="1" stop-color="white" stop-opacity="0"/>
</linearGradient>
<clipPath id="clip0_2_937">
<rect width="294" height="154.875" fill="white"/>
</clipPath>
</defs>
</svg>
