<svg width="294" height="164" viewBox="0 0 294 164" fill="none" xmlns="http://www.w3.org/2000/svg">
<g clip-path="url(#clip0_2_962)">
<path d="M28.0342 11.5012C28.0342 5.14927 33.1835 0 39.5355 0H294V46.0049H39.5355C33.1835 46.0049 28.0342 40.8556 28.0342 34.5037V11.5012Z" fill="#202020"/>
<path d="M62.5379 8.62598H45.2861C42.1101 8.62598 39.5355 11.2006 39.5355 14.3766V31.6284C39.5355 34.8044 42.1101 37.379 45.2861 37.379H62.5379C65.7139 37.379 68.2885 34.8044 68.2885 31.6284V14.3766C68.2885 11.2006 65.7139 8.62598 62.5379 8.62598Z" fill="#2B4089"/>
<path d="M60.3814 18.9591C60.3814 20.8945 57.485 22.4634 53.912 22.4634C50.339 22.4634 47.4426 20.8945 47.4426 18.9591C47.4426 17.0237 50.339 15.4548 53.912 15.4548C57.485 15.4548 60.3814 17.0237 60.3814 18.9591Z" fill="white"/>
<path d="M53.912 23.5416C55.8422 23.5416 57.6431 23.1201 59.0001 22.385C59.4961 22.1163 59.968 21.7835 60.3633 21.3899C60.3753 21.4773 60.3814 21.5656 60.3814 21.6546C60.3814 23.59 57.485 25.1589 53.912 25.1589C50.339 25.1589 47.4426 23.59 47.4426 21.6546C47.4426 21.5656 47.4487 21.4773 47.4608 21.3899C47.856 21.7835 48.3279 22.1163 48.8239 22.385C50.1809 23.1201 51.9818 23.5416 53.912 23.5416Z" fill="white"/>
<path d="M53.912 26.2371C55.8422 26.2371 57.6431 25.8157 59.0001 25.0806C59.4961 24.8119 59.968 24.4791 60.3633 24.0854C60.3753 24.1729 60.3814 24.2611 60.3814 24.3502C60.3814 26.2856 57.485 27.8545 53.912 27.8545C50.339 27.8545 47.4426 26.2856 47.4426 24.3502C47.4426 24.2611 47.4487 24.1729 47.4608 24.0854C47.856 24.4791 48.3279 24.8119 48.8239 25.0806C50.1809 25.8157 51.9818 26.2371 53.912 26.2371Z" fill="white"/>
<path d="M53.912 28.9327C55.8422 28.9327 57.6431 28.5112 59.0001 27.7762C59.4961 27.5075 59.968 27.1746 60.3633 26.781C60.3753 26.8684 60.3814 26.9567 60.3814 27.0458C60.3814 28.9811 57.485 30.55 53.912 30.55C50.339 30.55 47.4426 28.9811 47.4426 27.0458C47.4426 26.9567 47.4487 26.8684 47.4608 26.781C47.856 27.1746 48.3279 27.5075 48.8239 27.7762C50.1809 28.5112 51.9818 28.9327 53.912 28.9327Z" fill="white"/>
<path d="M84.9984 28.2026C82.1554 28.2026 80.3583 26.1949 80.3583 22.9658C80.3583 19.7578 82.1698 17.7361 84.9984 17.7361C87.2936 17.7361 89.0281 19.1471 89.2948 21.2601H87.7364C87.4553 19.9614 86.3742 19.112 84.9984 19.112C83.1596 19.112 81.9656 20.6212 81.9656 22.9658C81.9656 25.3315 83.1452 26.8267 85.0055 26.8267C86.4166 26.8267 87.4201 26.1037 87.7364 24.8822H89.3013C88.9152 26.9742 87.3288 28.2026 84.9984 28.2026ZM90.5369 28.0341V20.6493H91.9832V21.9059H92.0184C92.2643 21.0424 92.9234 20.5299 93.7939 20.5299C94.0117 20.5299 94.2015 20.5651 94.3136 20.5862V21.9971C94.1943 21.948 93.9276 21.9129 93.6329 21.9129C92.6567 21.9129 92.0536 22.5657 92.0536 23.6117V28.0341H90.5369ZM95.9842 30.7859C95.8649 30.7859 95.4788 30.7719 95.3667 30.7508V29.5223C95.4788 29.5504 95.7319 29.5504 95.8584 29.5504C96.5672 29.5504 96.9388 29.2556 97.171 28.4974C97.171 28.4834 97.304 28.0482 97.304 28.0412L94.6364 20.6493H96.2789L98.1536 26.6582H98.1745L100.049 20.6493H101.649L98.8767 28.4202C98.2449 30.2102 97.5218 30.7859 95.9842 30.7859ZM106.388 20.5299C108.262 20.5299 109.497 22.0041 109.497 24.3417C109.497 26.6793 108.269 28.1605 106.416 28.1605C105.356 28.1605 104.514 27.641 104.093 26.8197H104.057V30.477H102.541V20.6493H104.008V21.9199H104.036C104.471 21.0705 105.321 20.5299 106.388 20.5299ZM105.987 26.8759C107.188 26.8759 107.939 25.8931 107.939 24.3417C107.939 22.7973 107.188 21.8076 105.987 21.8076C104.829 21.8076 104.05 22.8184 104.05 24.3417C104.05 25.8791 104.822 26.8759 105.987 26.8759ZM111.112 18.9014H112.635V20.6493H114.039V21.8497H112.635V25.9211C112.635 26.56 112.916 26.8478 113.534 26.8478C113.688 26.8478 113.934 26.8338 114.032 26.8127V28.0131C113.864 28.0552 113.527 28.0833 113.19 28.0833C111.695 28.0833 111.112 27.5146 111.112 26.0896V21.8497H110.038V20.6493H111.112V18.9014ZM118.279 28.1745C116.166 28.1745 114.776 26.7214 114.776 24.3417C114.776 21.969 116.173 20.5159 118.279 20.5159C120.385 20.5159 121.782 21.969 121.782 24.3417C121.782 26.7214 120.392 28.1745 118.279 28.1745ZM118.279 26.925C119.473 26.925 120.238 25.9843 120.238 24.3417C120.238 22.7061 119.465 21.7655 118.279 21.7655C117.093 21.7655 116.321 22.7061 116.321 24.3417C116.321 25.9843 117.093 26.925 118.279 26.925ZM129.293 23.1905H127.847C127.693 22.4043 127.103 21.7795 126.113 21.7795C124.941 21.7795 124.169 22.7552 124.169 24.3417C124.169 25.9633 124.948 26.9039 126.127 26.9039C127.061 26.9039 127.671 26.3915 127.847 25.5351H129.308C129.146 27.1075 127.889 28.1745 126.113 28.1745C124 28.1745 122.625 26.7285 122.625 24.3417C122.625 21.9971 124 20.5159 126.099 20.5159C128.001 20.5159 129.16 21.7374 129.293 23.1905ZM136.713 20.6493V28.0341H135.26V26.7846H135.225C134.818 27.6691 134.067 28.1675 132.937 28.1675C131.329 28.1675 130.346 27.1216 130.346 25.4298V20.6493H131.862V25.135C131.862 26.2581 132.396 26.8618 133.442 26.8618C134.537 26.8618 135.197 26.1037 135.197 24.9525V20.6493H136.713ZM138.215 28.0341V20.6493H139.662V21.9059H139.697C139.943 21.0424 140.602 20.5299 141.473 20.5299C141.69 20.5299 141.88 20.5651 141.992 20.5862V21.9971C141.873 21.948 141.606 21.9129 141.311 21.9129C140.336 21.9129 139.732 22.5657 139.732 23.6117V28.0341H138.215ZM142.933 28.0341V20.6493H144.379V21.9059H144.414C144.66 21.0424 145.319 20.5299 146.19 20.5299C146.408 20.5299 146.597 20.5651 146.71 20.5862V21.9971C146.59 21.948 146.324 21.9129 146.028 21.9129C145.053 21.9129 144.449 22.5657 144.449 23.6117V28.0341H142.933ZM150.416 21.7374C149.356 21.7374 148.612 22.5447 148.535 23.6608H152.227C152.192 22.5307 151.476 21.7374 150.416 21.7374ZM152.22 25.865H153.659C153.449 27.2128 152.171 28.1745 150.479 28.1745C148.31 28.1745 146.997 26.7074 146.997 24.3768C146.997 22.0603 148.331 20.5159 150.416 20.5159C152.466 20.5159 153.743 21.962 153.743 24.2014V24.7208H148.528V24.8121C148.528 26.0967 149.3 26.946 150.514 26.946C151.378 26.946 152.017 26.5109 152.22 25.865ZM154.922 28.0341V20.6493H156.368V21.8848H156.404C156.804 21.0424 157.59 20.523 158.727 20.523C160.356 20.523 161.29 21.5619 161.29 23.2537V28.0341H159.766V23.5485C159.766 22.4394 159.247 21.8287 158.194 21.8287C157.127 21.8287 156.439 22.5868 156.439 23.731V28.0341H154.922ZM169.095 23.1905H167.65C167.495 22.4043 166.905 21.7795 165.915 21.7795C164.744 21.7795 163.971 22.7552 163.971 24.3417C163.971 25.9633 164.75 26.9039 165.93 26.9039C166.863 26.9039 167.474 26.3915 167.65 25.5351H169.11C168.948 27.1075 167.691 28.1745 165.915 28.1745C163.803 28.1745 162.427 26.7285 162.427 24.3417C162.427 21.9971 163.803 20.5159 165.902 20.5159C167.804 20.5159 168.962 21.7374 169.095 23.1905ZM170.914 30.7859C170.795 30.7859 170.408 30.7719 170.296 30.7508V29.5223C170.408 29.5504 170.661 29.5504 170.787 29.5504C171.496 29.5504 171.869 29.2556 172.1 28.4974C172.1 28.4834 172.234 28.0482 172.234 28.0412L169.566 20.6493H171.209L173.083 26.6582H173.103L174.978 20.6493H176.578L173.806 28.4202C173.174 30.2102 172.451 30.7859 170.914 30.7859Z" fill="white"/>
<path d="M28.3936 11.5012C28.3936 5.34774 33.382 0.359375 39.5354 0.359375H293.641V45.6454H39.5354C33.382 45.6454 28.3936 40.6571 28.3936 34.5036V11.5012Z" stroke="white" stroke-opacity="0.01"/>
<path d="M28.3936 11.5012C28.3936 5.34774 33.382 0.359375 39.5354 0.359375H293.641V45.6454H39.5354C33.382 45.6454 28.3936 40.6571 28.3936 34.5036V11.5012Z" stroke="url(#paint0_radial_2_962)" stroke-opacity="0.12"/>
<path d="M0 66.1321C0 59.7801 5.14927 54.6309 11.5012 54.6309H294V109.262H11.5012C5.14926 109.262 0 104.113 0 97.7604V66.1321Z" fill="#202020"/>
<path d="M37.379 66.1321H17.2518C14.0759 66.1321 11.5012 68.7067 11.5012 71.8827V92.0098C11.5012 95.1858 14.0759 97.7604 17.2518 97.7604H37.379C40.5549 97.7604 43.1296 95.1858 43.1296 92.0098V71.8827C43.1296 68.7067 40.5549 66.1321 37.379 66.1321Z" fill="#2B892E"/>
<path d="M27.3154 78.7114C26.4222 78.7114 25.6981 79.4353 25.6981 80.3288C25.6981 81.2223 26.4222 81.9461 27.3154 81.9461C28.2086 81.9461 28.9328 81.2223 28.9328 80.3288C28.9328 79.4353 28.2086 78.7114 27.3154 78.7114Z" fill="white"/>
<path fill-rule="evenodd" clip-rule="evenodd" d="M19.7677 76.8246C19.7677 76.0799 20.3712 75.4768 21.1155 75.4768H33.5153C34.2596 75.4768 34.8631 76.0799 34.8631 76.8246V83.8332C34.8631 84.5779 34.2596 85.181 33.5153 85.181H21.1155C20.3712 85.181 19.7677 84.5779 19.7677 83.8332V76.8246ZM24.6198 80.3289C24.6198 78.8402 25.8266 77.6333 27.3154 77.6333C28.8041 77.6333 30.011 78.8402 30.011 80.3289C30.011 81.8176 28.8041 83.0245 27.3154 83.0245C25.8266 83.0245 24.6198 81.8176 24.6198 80.3289ZM32.1675 79.7898C31.8697 79.7898 31.6283 80.0313 31.6283 80.3289V80.3346C31.6283 80.6322 31.8697 80.8738 32.1675 80.8738H32.1728C32.4706 80.8738 32.712 80.6322 32.712 80.3346V80.3289C32.712 80.0313 32.4706 79.7898 32.1728 79.7898H32.1675ZM21.9242 80.3289C21.9242 80.0313 22.1656 79.7898 22.4633 79.7898H22.4687C22.7664 79.7898 23.0078 80.0313 23.0078 80.3289V80.3346C23.0078 80.6322 22.7664 80.8738 22.4687 80.8738H22.4633C22.1656 80.8738 21.9242 80.6322 21.9242 80.3346V80.3289Z" fill="white"/>
<path d="M20.3068 86.2593C20.0091 86.2593 19.7677 86.5008 19.7677 86.7984C19.7677 87.096 20.0091 87.3375 20.3068 87.3375C24.1885 87.3375 27.9481 87.8565 31.5204 88.8291C32.3762 89.062 33.2457 88.428 33.2457 87.5208V86.7984C33.2457 86.5008 33.0043 86.2593 32.7066 86.2593H20.3068Z" fill="white"/>
<path d="M55.212 85.0293H57.0737C57.2084 86.2341 58.3793 87.0255 59.9799 87.0255C61.513 87.0255 62.6165 86.2341 62.6165 85.1472C62.6165 84.2041 61.951 83.6391 60.3758 83.2516L58.8006 82.8728C56.5682 82.3337 55.5321 81.2893 55.5321 79.5957C55.5321 77.4982 57.3601 76.0583 59.9546 76.0583C62.5239 76.0583 64.2844 77.4982 64.3434 79.5957H62.507C62.3975 78.383 61.3951 77.6498 59.9293 77.6498C58.4636 77.6498 57.4612 78.3917 57.4612 79.4699C57.4612 80.3289 58.1014 80.8342 59.6682 81.2217L61.0076 81.5502C63.501 82.1403 64.5371 83.1424 64.5371 84.92C64.5371 87.1944 62.726 88.6177 59.8451 88.6177C57.1495 88.6177 55.33 87.2282 55.212 85.0293ZM66.0113 88.4157V79.554H67.7466V81.0449H67.7887C68.1846 80.0593 69.1112 79.4023 70.3074 79.4023C71.5372 79.4023 72.4304 80.0342 72.784 81.1376H72.8257C73.2807 80.0593 74.3252 79.4023 75.5889 79.4023C77.3414 79.4023 78.4872 80.5647 78.4872 82.3251V88.4157H76.6592V82.7636C76.6592 81.6178 76.0439 80.9607 74.9657 80.9607C73.8874 80.9607 73.1377 81.7608 73.1377 82.8815V88.4157H71.3519V82.6284C71.3519 81.6091 70.7033 80.9607 69.6756 80.9607C68.5974 80.9607 67.8308 81.8032 67.8308 82.9404V88.4157H66.0113ZM83.3472 87.1268C84.6195 87.1268 85.6136 86.2506 85.6136 85.0969V84.3975L83.4313 84.5326C82.3451 84.6081 81.7298 85.0883 81.7298 85.8466C81.7298 86.6215 82.3703 87.1268 83.3472 87.1268ZM82.8419 88.5674C81.1066 88.5674 79.8939 87.4891 79.8939 85.8969C79.8939 84.3471 81.0814 83.3954 83.1876 83.2775L85.6136 83.1338V82.4516C85.6136 81.4661 84.948 80.8766 83.836 80.8766C82.7829 80.8766 82.1259 81.382 81.9656 82.1734H80.2476C80.3482 80.5733 81.7133 79.3937 83.9036 79.3937C86.0514 79.3937 87.4244 80.5309 87.4244 82.3085V88.4157H85.6805V86.9586H85.6388C85.1248 87.9441 84.0042 88.5674 82.8419 88.5674ZM89.1934 88.4157V79.554H90.9287V81.0621H90.9711C91.2658 80.0256 92.0572 79.411 93.1024 79.411C93.3633 79.411 93.5905 79.4527 93.7256 79.4778V81.1714C93.5826 81.1124 93.262 81.07 92.9083 81.07C91.7373 81.07 91.0128 81.8535 91.0128 83.1086V88.4157H89.1934ZM95.3847 77.4565H97.2126V79.554H98.8976V80.9945H97.2126V85.8804C97.2126 86.6467 97.5498 86.9924 98.2909 86.9924C98.4763 86.9924 98.7711 86.9752 98.8889 86.95V88.3905C98.687 88.4409 98.283 88.4746 97.8783 88.4746C96.0841 88.4746 95.3847 87.7925 95.3847 86.0824V80.9945H94.0958V79.554H95.3847V77.4565ZM104.121 76.2603H108.678C111.036 76.2603 112.679 77.8863 112.679 80.2534C112.679 82.6284 111.003 84.263 108.618 84.263H106.007V88.4157H104.121V76.2603ZM106.007 77.8525V82.6795H108.172C109.815 82.6795 110.75 81.7946 110.75 80.2613C110.75 78.7281 109.815 77.8525 108.18 77.8525H106.007ZM117.531 88.5839C114.996 88.5839 113.327 86.8407 113.327 83.9848C113.327 81.1376 115.004 79.3937 117.531 79.3937C120.058 79.3937 121.735 81.1376 121.735 83.9848C121.735 86.8407 120.066 88.5839 117.531 88.5839ZM117.531 87.0844C118.963 87.0844 119.881 85.9559 119.881 83.9848C119.881 82.0217 118.954 80.8932 117.531 80.8932C116.107 80.8932 115.18 82.0217 115.18 83.9848C115.18 85.9559 116.107 87.0844 117.531 87.0844ZM123.141 88.4157V79.554H124.877V81.0621H124.918C125.213 80.0256 126.005 79.411 127.05 79.411C127.311 79.411 127.538 79.4527 127.673 79.4778V81.1714C127.53 81.1124 127.21 81.07 126.856 81.07C125.685 81.07 124.961 81.8535 124.961 83.1086V88.4157H123.141ZM129.333 77.4565H131.161V79.554H132.846V80.9945H131.161V85.8804C131.161 86.6467 131.498 86.9924 132.239 86.9924C132.424 86.9924 132.719 86.9752 132.837 86.95V88.3905C132.635 88.4409 132.23 88.4746 131.826 88.4746C130.032 88.4746 129.333 87.7925 129.333 86.0824V80.9945H128.044V79.554H129.333V77.4565ZM134.876 88.4157V80.9945H133.654V79.5705H134.876V78.7029C134.876 76.9849 135.684 76.1762 137.487 76.1762C137.857 76.1762 138.27 76.2179 138.506 76.2603V77.6081C138.33 77.5744 138.085 77.5578 137.841 77.5578C137.049 77.5578 136.678 77.9532 136.678 78.7367V79.5705H138.473V80.9945H136.704V88.4157H134.876ZM143.341 88.5839C140.806 88.5839 139.137 86.8407 139.137 83.9848C139.137 81.1376 140.814 79.3937 143.341 79.3937C145.869 79.3937 147.545 81.1376 147.545 83.9848C147.545 86.8407 145.877 88.5839 143.341 88.5839ZM143.341 87.0844C144.773 87.0844 145.692 85.9559 145.692 83.9848C145.692 82.0217 144.765 80.8932 143.341 80.8932C141.918 80.8932 140.991 82.0217 140.991 83.9848C140.991 85.9559 141.918 87.0844 143.341 87.0844ZM149.019 88.4157V76.2603H150.839V88.4157H149.019ZM152.767 88.4157V79.554H154.587V88.4157H152.767ZM153.677 78.2565C153.096 78.2565 152.624 77.7936 152.624 77.2207C152.624 76.6392 153.096 76.1762 153.677 76.1762C154.267 76.1762 154.739 76.6392 154.739 77.2207C154.739 77.7936 154.267 78.2565 153.677 78.2565ZM160.256 88.5839C157.721 88.5839 156.053 86.8407 156.053 83.9848C156.053 81.1376 157.729 79.3937 160.256 79.3937C162.783 79.3937 164.46 81.1376 164.46 83.9848C164.46 86.8407 162.792 88.5839 160.256 88.5839ZM160.256 87.0844C161.688 87.0844 162.606 85.9559 162.606 83.9848C162.606 82.0217 161.68 80.8932 160.256 80.8932C158.833 80.8932 157.906 82.0217 157.906 83.9848C157.906 85.9559 158.833 87.0844 160.256 87.0844ZM171.477 88.4157H169.59V76.2603H171.477V88.4157ZM173.498 88.4157V79.554H175.233V81.0362H175.276C175.756 80.0256 176.699 79.4023 178.064 79.4023C180.019 79.4023 181.138 80.6488 181.138 82.6795V88.4157H179.311V83.0331C179.311 81.7019 178.687 80.9694 177.424 80.9694C176.143 80.9694 175.318 81.8787 175.318 83.2516V88.4157H173.498ZM190.464 79.554L187.288 88.4157H185.334L182.141 79.554H184.078L186.303 86.638H186.336L188.56 79.554H190.464ZM194.962 80.8594C193.69 80.8594 192.797 81.8284 192.704 83.1675H197.135C197.094 81.8111 196.234 80.8594 194.962 80.8594ZM197.127 85.8128H198.854C198.601 87.4302 197.068 88.5839 195.038 88.5839C192.435 88.5839 190.86 86.8235 190.86 84.0273C190.86 81.2468 192.46 79.3937 194.962 79.3937C197.422 79.3937 198.955 81.129 198.955 83.8166V84.4399H192.696V84.5491C192.696 86.091 193.622 87.1103 195.08 87.1103C196.116 87.1103 196.883 86.5877 197.127 85.8128ZM200.21 82.0641C200.21 80.4806 201.609 79.3937 203.681 79.3937C205.652 79.3937 207.033 80.4971 207.092 82.0728H205.382C205.298 81.272 204.649 80.7753 203.63 80.7753C202.644 80.7753 201.987 81.2555 201.987 81.9549C201.987 82.5019 202.425 82.8728 203.344 83.1L204.835 83.4457C206.62 83.8756 207.294 84.5491 207.294 85.8552C207.294 87.4726 205.786 88.5839 203.613 88.5839C201.516 88.5839 200.126 87.4978 199.983 85.8718H201.785C201.928 86.7229 202.585 87.1944 203.697 87.1944C204.792 87.1944 205.466 86.7394 205.466 86.0234C205.466 85.4592 205.129 85.1472 204.203 84.9114L202.619 84.524C201.018 84.1365 200.21 83.3027 200.21 82.0641ZM209.24 77.4565H211.068V79.554H212.753V80.9945H211.068V85.8804C211.068 86.6467 211.405 86.9924 212.147 86.9924C212.332 86.9924 212.627 86.9752 212.745 86.95V88.3905C212.543 88.4409 212.138 88.4746 211.734 88.4746C209.94 88.4746 209.24 87.7925 209.24 86.0824V80.9945H207.951V79.554H209.24V77.4565ZM214.312 88.4157V79.554H216.131V88.4157H214.312ZM215.221 78.2565C214.64 78.2565 214.168 77.7936 214.168 77.2207C214.168 76.6392 214.64 76.1762 215.221 76.1762C215.811 76.1762 216.283 76.6392 216.283 77.2207C216.283 77.7936 215.811 78.2565 215.221 78.2565ZM217.993 88.4157V79.554H219.728V81.0362H219.77C220.25 80.0256 221.194 79.4023 222.558 79.4023C224.512 79.4023 225.633 80.6488 225.633 82.6795V88.4157H223.805V83.0331C223.805 81.7019 223.181 80.9694 221.918 80.9694C220.637 80.9694 219.812 81.8787 219.812 83.2516V88.4157H217.993ZM231.167 86.9414C232.591 86.9414 233.526 85.7877 233.526 83.9597C233.526 82.1403 232.591 80.9435 231.167 80.9435C229.769 80.9435 228.859 82.1145 228.859 83.9597C228.859 85.8128 229.769 86.9414 231.167 86.9414ZM231.184 91.7518C229.095 91.7518 227.545 90.6397 227.317 89.1065H229.145C229.407 89.8476 230.216 90.3364 231.251 90.3364C232.675 90.3364 233.517 89.5277 233.517 88.3143V86.8573H233.483C232.987 87.8176 231.942 88.4495 230.679 88.4495C228.455 88.4495 226.997 86.7142 226.997 83.9511C226.997 81.1627 228.447 79.411 230.721 79.411C231.976 79.411 233.004 80.0428 233.543 81.07H233.576V79.554H235.345V88.2554C235.345 90.3702 233.711 91.7518 231.184 91.7518Z" fill="white"/>
<path d="M0.359436 66.132C0.359436 59.9786 5.3478 54.9902 11.5012 54.9902H293.641V108.902H11.5012C5.34779 108.902 0.359436 103.914 0.359436 97.7604V66.132Z" stroke="white" stroke-opacity="0.01"/>
<path d="M0.359436 66.132C0.359436 59.9786 5.3478 54.9902 11.5012 54.9902H293.641V108.902H11.5012C5.34779 108.902 0.359436 103.914 0.359436 97.7604V66.132Z" stroke="url(#paint1_radial_2_962)" stroke-opacity="0.12"/>
<path d="M28.0342 129.389C28.0342 123.036 33.1835 117.887 39.5355 117.887H294V163.892H39.5355C33.1835 163.892 28.0342 158.743 28.0342 152.391V129.389Z" fill="#202020"/>
<path d="M62.5379 126.513H45.2861C42.1101 126.513 39.5355 129.088 39.5355 132.264V149.516C39.5355 152.692 42.1101 155.266 45.2861 155.266H62.5379C65.7139 155.266 68.2885 152.692 68.2885 149.516V132.264C68.2885 129.088 65.7139 126.513 62.5379 126.513Z" fill="#D06604"/>
<path d="M49.3295 134.96C48.2874 134.96 47.4426 135.804 47.4426 136.847C47.4426 137.889 48.2874 138.734 49.3295 138.734H58.4945C59.5366 138.734 60.3814 137.889 60.3814 136.847C60.3814 135.804 59.5366 134.96 58.4945 134.96H49.3295Z" fill="white"/>
<path d="M47.9817 140.351C47.6839 140.351 47.4426 140.592 47.4426 140.89C47.4426 141.188 47.6839 141.429 47.9817 141.429H59.8423C60.1401 141.429 60.3814 141.188 60.3814 140.89C60.3814 140.592 60.1401 140.351 59.8423 140.351H47.9817Z" fill="white"/>
<path d="M47.4426 143.586C47.4426 143.288 47.6839 143.046 47.9817 143.046H59.8423C60.1401 143.046 60.3814 143.288 60.3814 143.586C60.3814 143.883 60.1401 144.125 59.8423 144.125H47.9817C47.6839 144.125 47.4426 143.883 47.4426 143.586Z" fill="white"/>
<path d="M47.9817 145.742C47.6839 145.742 47.4426 145.984 47.4426 146.281C47.4426 146.579 47.6839 146.82 47.9817 146.82H59.8423C60.1401 146.82 60.3814 146.579 60.3814 146.281C60.3814 145.984 60.1401 145.742 59.8423 145.742H47.9817Z" fill="white"/>
<path d="M80.2742 143.1H81.8255C81.9376 144.104 82.9138 144.764 84.2472 144.764C85.5253 144.764 86.4446 144.104 86.4446 143.198C86.4446 142.412 85.8897 141.942 84.5771 141.619L83.2645 141.303C81.4042 140.853 80.5409 139.983 80.5409 138.572C80.5409 136.824 82.0641 135.624 84.2263 135.624C86.367 135.624 87.8341 136.824 87.8837 138.572H86.3533C86.2621 137.561 85.4268 136.951 84.2055 136.951C82.9835 136.951 82.1482 137.568 82.1482 138.467C82.1482 139.183 82.6816 139.604 83.9877 139.927L85.104 140.201C87.1814 140.692 88.0447 141.528 88.0447 143.008C88.0447 144.904 86.5359 146.09 84.135 146.09C81.8887 146.09 80.3727 144.932 80.2742 143.1ZM95.6054 138.537V145.922H94.1519V144.672H94.1174C93.7098 145.557 92.9586 146.055 91.8286 146.055C90.2213 146.055 89.2387 145.009 89.2387 143.317V138.537H90.7547V143.023C90.7547 144.145 91.2881 144.749 92.334 144.749C93.4295 144.749 94.0894 143.991 94.0894 142.84V138.537H95.6054ZM96.974 140.629C96.974 139.309 98.1392 138.403 99.8666 138.403C101.509 138.403 102.66 139.323 102.71 140.635H101.284C101.214 139.969 100.674 139.555 99.8242 139.555C99.0033 139.555 98.4555 139.955 98.4555 140.538C98.4555 140.994 98.8207 141.303 99.5855 141.492L100.828 141.78C102.316 142.138 102.878 142.7 102.878 143.787C102.878 145.135 101.621 146.062 99.8105 146.062C98.0623 146.062 96.9043 145.157 96.785 143.802H98.2866C98.4059 144.511 98.9537 144.904 99.8802 144.904C100.793 144.904 101.355 144.525 101.355 143.928C101.355 143.458 101.073 143.198 100.301 143.002L98.9817 142.678C97.6483 142.356 96.974 141.66 96.974 140.629ZM104.499 136.789H106.023V138.537H107.426V139.737H106.023V143.809C106.023 144.447 106.304 144.736 106.921 144.736C107.076 144.736 107.322 144.721 107.42 144.7V145.901C107.251 145.943 106.914 145.971 106.578 145.971C105.082 145.971 104.499 145.402 104.499 143.977V139.737H103.425V138.537H104.499V136.789ZM111.147 144.848C112.207 144.848 113.035 144.117 113.035 143.156V142.573L111.218 142.686C110.312 142.749 109.799 143.149 109.799 143.78C109.799 144.427 110.333 144.848 111.147 144.848ZM110.726 146.048C109.28 146.048 108.269 145.15 108.269 143.823C108.269 142.531 109.259 141.738 111.014 141.64L113.035 141.52V140.952C113.035 140.13 112.481 139.639 111.554 139.639C110.677 139.639 110.129 140.06 109.996 140.72H108.564C108.648 139.386 109.786 138.403 111.611 138.403C113.401 138.403 114.545 139.351 114.545 140.832V145.922H113.092V144.708H113.056C112.629 145.528 111.695 146.048 110.726 146.048ZM116.068 145.922V138.537H117.584V145.922H116.068ZM116.826 137.456C116.342 137.456 115.949 137.07 115.949 136.592C115.949 136.108 116.342 135.722 116.826 135.722C117.318 135.722 117.711 136.108 117.711 136.592C117.711 137.07 117.318 137.456 116.826 137.456ZM119.135 145.922V138.537H120.582V139.772H120.617C121.017 138.93 121.803 138.411 122.94 138.411C124.569 138.411 125.503 139.449 125.503 141.141V145.922H123.98V141.436C123.98 140.327 123.46 139.716 122.407 139.716C121.34 139.716 120.652 140.474 120.652 141.619V145.922H119.135ZM129.553 144.848C130.613 144.848 131.441 144.117 131.441 143.156V142.573L129.623 142.686C128.717 142.749 128.206 143.149 128.206 143.78C128.206 144.427 128.739 144.848 129.553 144.848ZM129.132 146.048C127.686 146.048 126.675 145.15 126.675 143.823C126.675 142.531 127.665 141.738 129.42 141.64L131.441 141.52V140.952C131.441 140.13 130.887 139.639 129.96 139.639C129.083 139.639 128.535 140.06 128.402 140.72H126.97C127.054 139.386 128.191 138.403 130.016 138.403C131.806 138.403 132.951 139.351 132.951 140.832V145.922H131.498V144.708H131.463C131.034 145.528 130.1 146.048 129.132 146.048ZM138.356 146.048C137.275 146.048 136.44 145.521 135.983 144.665H135.955V145.922H134.481V135.792H135.997V139.794H136.032C136.474 138.937 137.317 138.418 138.363 138.418C140.223 138.418 141.438 139.891 141.438 142.229C141.438 144.574 140.23 146.048 138.356 146.048ZM137.949 139.695C136.798 139.695 135.99 140.706 135.99 142.229C135.99 143.767 136.798 144.764 137.949 144.764C139.142 144.764 139.879 143.795 139.879 142.229C139.879 140.678 139.142 139.695 137.949 139.695ZM142.68 145.922V135.792H144.197V145.922H142.68ZM148.843 139.625C147.784 139.625 147.04 140.432 146.962 141.548H150.655C150.619 140.418 149.903 139.625 148.843 139.625ZM150.647 143.752H152.086C151.876 145.1 150.598 146.062 148.906 146.062C146.738 146.062 145.425 144.595 145.425 142.264C145.425 139.948 146.758 138.403 148.843 138.403C150.893 138.403 152.171 139.85 152.171 142.089V142.609H146.955V142.7C146.955 143.984 147.727 144.833 148.942 144.833C149.805 144.833 150.444 144.398 150.647 143.752ZM158.025 145.922H156.453V135.792H158.025V145.922ZM159.71 145.922V138.537H161.156V139.772H161.191C161.591 138.93 162.378 138.411 163.515 138.411C165.143 138.411 166.077 139.449 166.077 141.141V145.922H164.554V141.436C164.554 140.327 164.034 139.716 162.981 139.716C161.914 139.716 161.226 140.474 161.226 141.619V145.922H159.71ZM173.848 138.537L171.201 145.922H169.573L166.912 138.537H168.527L170.38 144.44H170.408L172.262 138.537H173.848ZM177.596 139.625C176.537 139.625 175.793 140.432 175.715 141.548H179.408C179.372 140.418 178.656 139.625 177.596 139.625ZM179.4 143.752H180.839C180.629 145.1 179.352 146.062 177.659 146.062C175.491 146.062 174.178 144.595 174.178 142.264C174.178 139.948 175.512 138.403 177.596 138.403C179.646 138.403 180.924 139.85 180.924 142.089V142.609H175.709V142.7C175.709 143.984 176.481 144.833 177.695 144.833C178.558 144.833 179.197 144.398 179.4 143.752ZM181.969 140.629C181.969 139.309 183.135 138.403 184.862 138.403C186.505 138.403 187.656 139.323 187.705 140.635H186.28C186.21 139.969 185.669 139.555 184.82 139.555C183.999 139.555 183.451 139.955 183.451 140.538C183.451 140.994 183.816 141.303 184.581 141.492L185.824 141.78C187.312 142.138 187.873 142.7 187.873 143.787C187.873 145.135 186.617 146.062 184.806 146.062C183.058 146.062 181.9 145.157 181.78 143.802H183.283C183.402 144.511 183.949 144.904 184.876 144.904C185.789 144.904 186.35 144.525 186.35 143.928C186.35 143.458 186.07 143.198 185.297 143.002L183.977 142.678C182.644 142.356 181.969 141.66 181.969 140.629ZM189.495 136.789H191.018V138.537H192.422V139.737H191.018V143.809C191.018 144.447 191.299 144.736 191.917 144.736C192.071 144.736 192.317 144.721 192.415 144.7V145.901C192.247 145.943 191.91 145.971 191.573 145.971C190.078 145.971 189.495 145.402 189.495 143.977V139.737H188.421V138.537H189.495V136.789ZM193.721 145.922V138.537H195.237V145.922H193.721ZM194.479 137.456C193.995 137.456 193.602 137.07 193.602 136.592C193.602 136.108 193.995 135.722 194.479 135.722C194.97 135.722 195.363 136.108 195.363 136.592C195.363 137.07 194.97 137.456 194.479 137.456ZM196.789 145.922V138.537H198.234V139.772H198.27C198.67 138.93 199.456 138.411 200.594 138.411C202.222 138.411 203.155 139.449 203.155 141.141V145.922H201.632V141.436C201.632 140.327 201.113 139.716 200.059 139.716C198.993 139.716 198.305 140.474 198.305 141.619V145.922H196.789ZM207.767 144.693C208.954 144.693 209.733 143.731 209.733 142.208C209.733 140.692 208.954 139.695 207.767 139.695C206.602 139.695 205.844 140.671 205.844 142.208C205.844 143.752 206.602 144.693 207.767 144.693ZM207.782 148.701C206.041 148.701 204.749 147.775 204.559 146.497H206.082C206.3 147.115 206.975 147.523 207.838 147.523C209.024 147.523 209.726 146.848 209.726 145.838V144.623H209.698C209.283 145.424 208.414 145.95 207.361 145.95C205.507 145.95 204.293 144.503 204.293 142.201C204.293 139.878 205.5 138.418 207.396 138.418C208.442 138.418 209.298 138.944 209.747 139.8H209.775V138.537H211.249V145.788C211.249 147.551 209.887 148.701 207.782 148.701Z" fill="white"/>
<path d="M28.3936 129.389C28.3936 123.236 33.382 118.247 39.5354 118.247H293.641V163.533H39.5354C33.382 163.533 28.3936 158.544 28.3936 152.391V129.389Z" stroke="white" stroke-opacity="0.01"/>
<path d="M28.3936 129.389C28.3936 123.236 33.382 118.247 39.5354 118.247H293.641V163.533H39.5354C33.382 163.533 28.3936 158.544 28.3936 152.391V129.389Z" stroke="url(#paint2_radial_2_962)" stroke-opacity="0.12"/>
</g>
<defs>
<radialGradient id="paint0_radial_2_962" cx="0" cy="0" r="1" gradientUnits="userSpaceOnUse" gradientTransform="translate(161.017 -3.79292e-05) rotate(90) scale(29.4175 170.07)">
<stop stop-color="white"/>
<stop offset="1" stop-color="white" stop-opacity="0"/>
</radialGradient>
<radialGradient id="paint1_radial_2_962" cx="0" cy="0" r="1" gradientUnits="userSpaceOnUse" gradientTransform="translate(147 54.6308) rotate(90) scale(34.9334 187.997)">
<stop stop-color="white"/>
<stop offset="1" stop-color="white" stop-opacity="0"/>
</radialGradient>
<radialGradient id="paint2_radial_2_962" cx="0" cy="0" r="1" gradientUnits="userSpaceOnUse" gradientTransform="translate(161.017 117.888) rotate(90) scale(29.4175 170.07)">
<stop stop-color="white"/>
<stop offset="1" stop-color="white" stop-opacity="0"/>
</radialGradient>
<clipPath id="clip0_2_962">
<rect width="294" height="163.892" fill="white"/>
</clipPath>
</defs>
</svg>
