<svg width="29" height="29" viewBox="0 0 29 29" fill="none" xmlns="http://www.w3.org/2000/svg">
<path d="M23.8958 12.1607C22.8352 6.74354 17.5778 3.20782 12.1607 4.26846C6.74355 5.3291 3.20784 10.5864 4.26847 16.0036C5.32911 21.4207 10.5864 24.9564 16.0036 23.8958C21.4207 22.8352 24.9564 17.5778 23.8958 12.1607ZM19.5314 18.6502L10.4719 12.5574L11.0522 15.5211C11.131 15.9235 10.8626 16.3225 10.4603 16.4013C10.0579 16.48 9.65891 16.2117 9.58013 15.8093L8.65207 11.0693C8.57329 10.667 8.84163 10.268 9.24399 10.1892L13.984 9.26115C14.3864 9.18237 14.7853 9.45071 14.8641 9.85307C14.9429 10.2554 14.6746 10.6544 14.2722 10.7332L11.3085 11.3135L20.368 17.4063C20.544 17.5247 20.6492 17.6977 20.6857 17.8841C20.7222 18.0706 20.69 18.2705 20.5717 18.4465C20.3428 18.7868 19.8717 18.8791 19.5314 18.6502Z" fill="white"/>
</svg>
