<svg width="113" height="22" viewBox="0 0 113 22" fill="none" xmlns="http://www.w3.org/2000/svg">
<path d="M47.6468 16.6631H45.6723C45.4952 16.6631 45.4292 16.5016 45.3492 16.3448L43.0196 12.4759H42.662C42.2398 12.4759 40.9326 12.4306 40.5607 12.4103V16.3448C40.5607 16.5191 40.43 16.6631 40.2514 16.6631H38.6345C38.5491 16.6626 38.4673 16.6289 38.4069 16.5693C38.3465 16.5098 38.3124 16.4291 38.3119 16.3448V5.88841C38.3119 5.56824 38.5033 5.4568 38.8288 5.40958C39.6713 5.28161 41.4792 5.20274 42.6615 5.20274C45.1516 5.20274 47.452 6.08061 47.452 8.80863V8.95266C47.452 10.6423 46.5952 11.5669 45.2693 12.0745L47.8067 16.3448C47.8402 16.393 47.8402 16.4379 47.8402 16.4737C47.8407 16.5819 47.7761 16.6631 47.6468 16.6631ZM45.2205 8.80863C45.2205 7.61202 44.2794 7.10202 42.662 7.10202C42.3212 7.10202 40.8498 7.13366 40.5607 7.16483V10.6253C40.8167 10.6409 42.3839 10.6734 42.662 10.6734C44.3259 10.6734 45.2205 10.3561 45.2205 8.95266V8.80863ZM52.1525 13.52C52.1525 14.8583 52.2047 14.8932 53.4277 14.8932H57.5217C57.6076 14.8935 57.6898 14.9271 57.7506 14.9869C57.8114 15.0467 57.8458 15.1278 57.8463 15.2124V16.2315C57.8463 16.4567 57.7649 16.5366 57.5217 16.5672C57.0048 16.6475 55.9512 16.7897 54.0279 16.7897C51.3436 16.7897 49.9191 16.8081 49.9191 13.52V8.47194C49.9191 5.1848 51.3436 5.20322 54.0279 5.20322C55.9512 5.20322 57.0048 5.34724 57.5217 5.42611C57.7649 5.4568 57.8463 5.53802 57.8463 5.76186V6.78138C57.8463 6.95563 57.7003 7.1025 57.5217 7.1025H53.4277C52.2047 7.1025 52.1525 7.13791 52.1525 8.47194V9.93583H57.3284C57.4138 9.93619 57.4956 9.96967 57.5562 10.029C57.6169 10.0884 57.6514 10.1689 57.6524 10.2532V11.4049C57.6517 11.4894 57.6172 11.5702 57.5566 11.6298C57.496 11.6895 57.414 11.7232 57.3284 11.7237H52.1525V13.52ZM65.1076 16.7897C62.5061 16.7897 60.2645 15.6738 60.2645 12.2733V5.63388C60.2645 5.4568 60.4124 5.32977 60.59 5.32977H62.1883C62.3678 5.32977 62.5123 5.4568 62.5123 5.63388V12.2733C62.5123 14.0933 63.3648 14.9565 65.1081 14.9565C66.8562 14.9565 67.7082 14.0933 67.7082 12.2733V5.63388C67.7082 5.4568 67.8528 5.32977 68.0304 5.32977H69.631C69.8105 5.32977 69.9565 5.4568 69.9565 5.63388V12.2733C69.9556 15.6733 67.713 16.7897 65.1076 16.7897ZM80.5896 7.17947H77.3634V16.3448C77.362 16.4296 77.327 16.5105 77.2657 16.57C77.2045 16.6296 77.122 16.663 77.036 16.6631H75.4354C75.3498 16.6627 75.2678 16.6291 75.2071 16.5696C75.1465 16.51 75.1121 16.4293 75.1113 16.3448V7.17947H71.8827C71.707 7.17947 71.561 7.06991 71.561 6.89425V5.63388C71.561 5.4568 71.707 5.32977 71.8827 5.32977H80.5892C80.7639 5.32977 80.9099 5.4568 80.9099 5.63388V6.89425C80.9103 7.06991 80.7648 7.17947 80.5896 7.17947ZM102.552 16.6631H100.578C100.4 16.6631 100.337 16.5016 100.256 16.3448L97.9255 12.4759H97.5646C97.1467 12.4759 95.838 12.4306 95.4637 12.4103V16.3448C95.4637 16.5191 95.3354 16.6631 95.1588 16.6631H93.5433C93.4576 16.663 93.3754 16.6295 93.3147 16.5699C93.2539 16.5103 93.2194 16.4294 93.2188 16.3448V5.88841C93.2188 5.56824 93.4102 5.4568 93.7348 5.40958C94.5753 5.28161 96.3861 5.20274 97.5641 5.20274C100.057 5.20274 102.356 6.08061 102.356 8.80863V8.95266C102.356 10.6423 101.497 11.5669 100.172 12.0745L102.714 16.3448C102.739 16.3832 102.75 16.4284 102.747 16.4737C102.747 16.5819 102.681 16.6631 102.552 16.6631ZM100.126 8.80863C100.126 7.61202 99.1849 7.10202 97.5646 7.10202C97.2271 7.10202 95.7557 7.13366 95.4637 7.16483V10.6253C95.7256 10.6409 97.2942 10.6734 97.5646 10.6734C99.2332 10.6734 100.126 10.3561 100.126 8.95266V8.80863ZM108.725 16.7967C107.295 16.7967 105.847 16.555 105.069 16.3788C104.909 16.3467 104.762 16.2357 104.762 16.0606V14.9112C104.762 14.7369 104.909 14.6075 105.069 14.6075H105.101C105.749 14.6878 107.263 14.8951 108.758 14.8951C110.196 14.8951 110.637 14.387 110.637 13.4629C110.637 12.2658 107.741 11.6032 106.328 11.029C104.921 10.4548 104.422 9.35547 104.422 8.24008C104.422 6.48388 105.855 5.20747 108.862 5.20747C110.404 5.20747 111.815 5.49647 112.365 5.6268C112.528 5.65891 112.655 5.77083 112.655 5.92949V7.11005C112.655 7.26777 112.544 7.39669 112.38 7.39669H112.349C111.281 7.30177 110.174 7.10769 108.768 7.10769C107.569 7.10769 106.673 7.5223 106.673 8.24008C106.673 8.76519 107.281 9.24733 107.999 9.52877C108.717 9.80786 109.658 10.1691 110.734 10.596C112.096 11.1395 112.98 11.9314 112.98 13.4629C112.979 15.0731 111.961 16.7967 108.725 16.7967ZM84.8072 13.52C84.8072 14.8583 84.8574 14.8932 86.0833 14.8932H90.1802C90.2654 14.8945 90.3466 14.9286 90.4066 14.9882C90.4666 15.0479 90.5004 15.1284 90.5009 15.2124V16.2315C90.5009 16.4567 90.4195 16.5366 90.1802 16.5672C89.6594 16.6475 88.6078 16.7897 86.6845 16.7897C83.9949 16.7897 82.5737 16.8081 82.5737 13.52V8.47194C82.5737 5.1848 83.9949 5.20322 86.6845 5.20322C88.6078 5.20322 89.6594 5.34724 90.1802 5.42611C90.4195 5.4568 90.5009 5.53802 90.5009 5.76186V6.78138C90.5009 6.95563 90.354 7.1025 90.1802 7.1025H86.0833C84.8574 7.1025 84.8072 7.13791 84.8072 8.47194V9.93583H89.9835C90.163 9.93583 90.3042 10.0808 90.3042 10.2532V11.4049C90.3044 11.4891 90.2708 11.57 90.2107 11.6297C90.1505 11.6895 90.0688 11.7233 89.9835 11.7237H84.8072V13.52ZM18.9225 4.79144C18.7056 5.01718 18.4067 5.14875 18.0915 5.15725C17.7763 5.16575 17.4706 5.05048 17.2414 4.83677C17.1275 4.73123 17.0359 4.60451 16.9719 4.46388C16.9078 4.32326 16.8726 4.17153 16.8682 4.01742C16.8639 3.86331 16.8904 3.70987 16.9464 3.56595C17.0025 3.42202 17.0868 3.29044 17.1945 3.1788C17.3013 3.06646 17.4295 2.97601 17.5718 2.91263C17.7141 2.84925 17.8676 2.81419 18.0236 2.80945C18.1797 2.80471 18.3351 2.83039 18.4811 2.88502C18.627 2.93965 18.7606 3.02215 18.8742 3.1278C19.1039 3.34227 19.238 3.63787 19.247 3.94976C19.2561 4.26164 19.1394 4.56434 18.9225 4.79144ZM7.06835 2.12433C6.95479 2.0195 6.80387 1.96317 6.64842 1.96759C6.49297 1.97201 6.34558 2.03683 6.23834 2.14794C6.1322 2.25965 6.07514 2.40823 6.07963 2.56128C6.08411 2.71432 6.14977 2.85941 6.26227 2.96488C6.37583 3.06982 6.52688 3.12615 6.68241 3.12154C6.83794 3.11694 6.9853 3.05179 7.09228 2.94033C7.19836 2.82878 7.25539 2.68035 7.25091 2.52746C7.24642 2.37457 7.18079 2.22964 7.06835 2.12433ZM10.0404 1.00894C9.90031 0.879799 9.71415 0.81055 9.52252 0.816301C9.33089 0.822051 9.14934 0.902333 9.01748 1.03963C8.95218 1.10806 8.90119 1.1885 8.86741 1.27637C8.83363 1.36424 8.81773 1.45781 8.82062 1.55174C8.82351 1.64567 8.84513 1.73812 8.88425 1.82381C8.92336 1.9095 8.97921 1.98674 9.04859 2.05113C9.18893 2.18012 9.37528 2.24913 9.56699 2.24312C9.75871 2.2371 9.94023 2.15655 10.072 2.01902C10.2028 1.88056 10.2728 1.69674 10.2669 1.50757C10.261 1.3184 10.1796 1.13919 10.0404 1.00894ZM13.2283 0.778967C13.0506 0.614501 12.8141 0.52611 12.5705 0.5331C12.3269 0.54009 12.096 0.641893 11.9283 0.816273C11.7694 0.992948 11.6866 1.22368 11.6973 1.45957C11.708 1.69547 11.8113 1.918 11.9854 2.08001C12.1595 2.24203 12.3908 2.33081 12.6301 2.32753C12.8694 2.32426 13.0981 2.22919 13.2676 2.06247C13.4344 1.88689 13.5239 1.65326 13.5166 1.41272C13.5092 1.17218 13.4056 0.944306 13.2283 0.778967ZM16.2444 1.54066C16.1457 1.44839 16.0295 1.37626 15.9025 1.32841C15.7754 1.28056 15.6401 1.25794 15.5041 1.26185C15.3682 1.26575 15.2344 1.29611 15.1104 1.35117C14.9864 1.40623 14.8747 1.48491 14.7816 1.58269C14.6883 1.68008 14.6153 1.79465 14.5669 1.91986C14.5184 2.04506 14.4955 2.17846 14.4993 2.31242C14.5031 2.44638 14.5336 2.57829 14.5891 2.70061C14.6446 2.82293 14.724 2.93327 14.8227 3.02533C15.0228 3.21069 15.2891 3.31034 15.5634 3.30246C15.8377 3.29459 16.0977 3.17983 16.2865 2.9833C16.4744 2.78626 16.5754 2.5238 16.5675 2.2534C16.5596 1.983 16.4434 1.72671 16.2444 1.54066ZM4.54865 4.07744C4.46401 3.99953 4.35163 3.95771 4.23593 3.96107C4.12022 3.96443 4.01053 4.0127 3.93069 4.09538C3.8911 4.13639 3.86011 4.18472 3.83952 4.23758C3.81892 4.29044 3.80912 4.34679 3.81068 4.4034C3.81224 4.46001 3.82512 4.51576 3.84859 4.56744C3.87206 4.61913 3.90565 4.66572 3.94744 4.70455C3.98895 4.74375 4.03793 4.77443 4.09154 4.79482C4.14516 4.8152 4.20234 4.82489 4.25978 4.8233C4.31722 4.82172 4.37376 4.80891 4.42614 4.78561C4.47852 4.7623 4.52569 4.72897 4.56492 4.68755C4.64464 4.60445 4.6877 4.49355 4.68465 4.37917C4.6816 4.2648 4.63269 4.15629 4.54865 4.07744ZM19.7693 14.7204C19.6625 14.8323 19.6051 14.9813 19.6096 15.1349C19.6141 15.2885 19.6801 15.4341 19.7932 15.5397C19.9078 15.6402 20.0575 15.6927 20.2107 15.686C20.3639 15.6793 20.5083 15.6139 20.6134 15.5037C20.7184 15.3936 20.7758 15.2473 20.7732 15.0961C20.7707 14.9449 20.7085 14.8006 20.5998 14.6939C20.4859 14.5892 20.3346 14.5332 20.179 14.5382C20.0234 14.5431 19.8761 14.6086 19.7693 14.7204ZM20.5208 11.7322C20.3904 11.8706 20.3208 12.0541 20.3269 12.243C20.3331 12.4318 20.4147 12.6106 20.5538 12.7404C20.6229 12.8049 20.7043 12.8554 20.7933 12.8888C20.8822 12.9223 20.977 12.9381 21.0721 12.9353C21.1673 12.9325 21.2609 12.9111 21.3477 12.8725C21.4345 12.8338 21.5126 12.7787 21.5777 12.7101C21.6432 12.642 21.6943 12.5617 21.7281 12.474C21.762 12.3863 21.7779 12.2928 21.7749 12.199C21.7719 12.1051 21.7501 12.0128 21.7107 11.9274C21.6714 11.8419 21.6153 11.7649 21.5456 11.701C21.4052 11.5717 21.2187 11.5024 21.0267 11.5082C20.8347 11.5141 20.6529 11.5946 20.5208 11.7322ZM20.2901 8.58527C20.2071 8.67192 20.1424 8.77387 20.0995 8.88527C20.0566 8.99667 20.0364 9.11534 20.0401 9.23446C20.0437 9.35357 20.0712 9.4708 20.121 9.57941C20.1707 9.68801 20.2417 9.78587 20.3298 9.86736C20.4177 9.94912 20.521 10.013 20.6339 10.0553C20.7469 10.0976 20.8671 10.1175 20.9878 10.1138C21.1086 10.1102 21.2274 10.0831 21.3375 10.034C21.4476 9.98503 21.5468 9.91507 21.6294 9.82816C21.7914 9.65208 21.8768 9.4203 21.8672 9.18271C21.8577 8.94513 21.754 8.72072 21.5785 8.55781C21.4029 8.39489 21.1695 8.30649 20.9286 8.31163C20.6876 8.31676 20.4583 8.41503 20.2901 8.58527ZM19.1767 5.66883C19.0363 5.81591 18.9433 6.00076 18.9095 6.19999C18.8757 6.39923 18.9025 6.60389 18.9866 6.78807C19.0707 6.97225 19.2084 7.12767 19.382 7.23466C19.5557 7.34166 19.7577 7.39542 19.9624 7.38914C20.167 7.38285 20.3652 7.31681 20.5318 7.19937C20.6984 7.08193 20.826 6.91836 20.8983 6.72938C20.9706 6.5404 20.9845 6.33449 20.9382 6.13772C20.8919 5.94094 20.7874 5.76215 20.6381 5.62397C20.2255 5.23769 19.5697 5.25988 19.1767 5.66883ZM18.1538 17.3124C18.0748 17.3961 18.0325 17.5071 18.0361 17.6214C18.0396 17.7356 18.0888 17.8439 18.1729 17.9225C18.2148 17.9612 18.264 17.9913 18.3177 18.0111C18.3714 18.031 18.4286 18.0401 18.4859 18.0381C18.5432 18.036 18.5995 18.0228 18.6516 17.9991C18.7037 17.9755 18.7506 17.9419 18.7895 17.9003C18.8292 17.8597 18.8604 17.8117 18.881 17.759C18.9016 17.7064 18.9114 17.6502 18.9096 17.5937C18.9079 17.5373 18.8947 17.4818 18.8709 17.4305C18.847 17.3792 18.813 17.3331 18.7708 17.2949C18.7294 17.2557 18.6804 17.2249 18.6268 17.2045C18.5732 17.1841 18.516 17.1744 18.4586 17.1761C18.4011 17.1777 18.3446 17.1906 18.2923 17.214C18.24 17.2374 18.1929 17.2709 18.1538 17.3124ZM5.52848 18.8207C5.74164 18.5935 5.85528 18.2925 5.84466 17.9831C5.83404 17.6737 5.70003 17.381 5.47178 17.1686C5.24352 16.9562 4.93948 16.8412 4.62579 16.8488C4.31209 16.8564 4.01411 16.9858 3.79666 17.209C3.59097 17.4374 3.48356 17.7359 3.49721 18.0411C3.51085 18.3463 3.64449 18.6343 3.86976 18.844C4.09504 19.0536 4.39424 19.1684 4.7039 19.1641C5.01356 19.1597 5.30933 19.0366 5.52848 18.8207ZM2.95325 7.27863C3.00615 7.22332 3.04748 7.15827 3.07489 7.08719C3.1023 7.01612 3.11526 6.94041 3.11301 6.8644C3.11077 6.78838 3.09337 6.71355 3.06181 6.64417C3.03025 6.57479 2.98515 6.51222 2.92908 6.46004C2.87301 6.40785 2.80707 6.36707 2.73502 6.34003C2.66298 6.31299 2.58624 6.30021 2.50919 6.30242C2.43213 6.30464 2.35628 6.3218 2.28595 6.35294C2.21563 6.38407 2.1522 6.42857 2.09931 6.48388C1.87433 6.71527 1.88774 7.0803 2.12563 7.3013C2.35874 7.51852 2.72923 7.50955 2.95325 7.27863ZM2.19887 10.2683C2.32995 10.1299 2.40037 9.94606 2.39482 9.75674C2.38926 9.56742 2.30817 9.38791 2.16919 9.25724C2.02852 9.13294 1.84422 9.06773 1.65553 9.07548C1.46684 9.08324 1.28868 9.16335 1.15897 9.29876C1.02926 9.43417 0.958253 9.61418 0.961069 9.80047C0.963885 9.98676 1.0403 10.1646 1.17405 10.2961C1.31401 10.4259 1.5003 10.4957 1.69228 10.4905C1.88426 10.4853 2.06636 10.4054 2.19887 10.2683ZM2.43102 13.4137C2.59864 13.2381 2.68871 13.004 2.68144 12.7629C2.67417 12.5218 2.57016 12.2934 2.39225 12.1279C2.21424 11.9631 1.97721 11.8746 1.73319 11.8821C1.48917 11.8895 1.25811 11.9922 1.09076 12.1676C0.924086 12.3432 0.83474 12.5768 0.842276 12.8173C0.849812 13.0577 0.953616 13.2854 1.13097 13.4506C1.50241 13.7967 2.08351 13.7783 2.43102 13.4137ZM3.54249 16.3311C3.73044 16.134 3.8315 15.8714 3.82352 15.6009C3.81553 15.3304 3.69915 15.074 3.49989 14.888C3.40121 14.7961 3.28511 14.7243 3.15824 14.6768C3.03136 14.6292 2.89622 14.6069 2.76057 14.611C2.62492 14.6151 2.49143 14.6456 2.36777 14.7008C2.2441 14.756 2.1327 14.8347 2.03995 14.9324C1.94634 15.0296 1.87308 15.144 1.82438 15.2692C1.77567 15.3943 1.75248 15.5278 1.75613 15.6618C1.75977 15.7958 1.79019 15.9278 1.84563 16.0502C1.90107 16.1726 1.98044 16.283 2.0792 16.3751C2.27981 16.5593 2.54602 16.6581 2.82 16.6499C3.09398 16.6416 3.35361 16.5271 3.54249 16.3311ZM15.6528 19.8747C15.7088 19.9269 15.7747 19.9678 15.8467 19.9948C15.9188 20.0218 15.9955 20.0345 16.0726 20.0322C16.1496 20.0299 16.2254 20.0126 16.2956 19.9812C16.3659 19.9499 16.4291 19.9052 16.4818 19.8497C16.5347 19.7945 16.5759 19.7297 16.6033 19.6587C16.6306 19.5878 16.6435 19.5123 16.6411 19.4365C16.6388 19.3606 16.6212 19.286 16.5895 19.2169C16.5578 19.1477 16.5126 19.0855 16.4564 19.0337C16.4006 18.9814 16.3349 18.9406 16.263 18.9135C16.1911 18.8864 16.1146 18.8736 16.0377 18.8758C15.9607 18.878 15.885 18.8951 15.8149 18.9263C15.7447 18.9574 15.6815 19.0019 15.6288 19.0573C15.5222 19.1688 15.4648 19.3176 15.4693 19.4709C15.4738 19.6241 15.5398 19.7694 15.6528 19.8747ZM12.6807 20.9887C12.9727 21.2602 13.4303 21.2422 13.7046 20.957C13.7699 20.889 13.821 20.809 13.8549 20.7215C13.8888 20.634 13.9048 20.5407 13.902 20.4471C13.8993 20.3534 13.8778 20.2613 13.8388 20.1758C13.7998 20.0904 13.7441 20.0134 13.6749 19.9493C13.5345 19.8194 13.3476 19.7498 13.1552 19.7556C12.9629 19.7615 12.7807 19.8423 12.6486 19.9805C12.518 20.1187 12.4481 20.3022 12.4541 20.4911C12.4601 20.6799 12.5416 20.8588 12.6807 20.9887ZM9.49088 21.2158C9.86424 21.5629 10.4425 21.5459 10.7905 21.1813C10.8736 21.0949 10.9386 20.9931 10.9818 20.8818C11.025 20.7706 11.0455 20.652 11.0421 20.5328C11.0387 20.4137 11.0116 20.2964 10.9621 20.1877C10.9127 20.079 10.842 19.981 10.7541 19.8992C10.5762 19.7342 10.3392 19.6453 10.0951 19.6521C9.85098 19.6588 9.61946 19.7605 9.45115 19.9351C9.36837 20.0217 9.30372 20.1236 9.26091 20.2348C9.2181 20.3461 9.19796 20.4646 9.20165 20.5836C9.20534 20.7026 9.23279 20.8196 9.28242 20.9281C9.33205 21.0366 9.40289 21.1344 9.49088 21.2158ZM6.48102 20.4584C6.5796 20.5503 6.69562 20.6222 6.82242 20.6699C6.94921 20.7176 7.0843 20.7401 7.21993 20.7361C7.35557 20.7322 7.48907 20.7018 7.6128 20.6469C7.73653 20.5919 7.84805 20.5134 7.94096 20.4159C8.03396 20.3183 8.10657 20.2036 8.15464 20.0783C8.20271 19.9531 8.2253 19.8197 8.22112 19.6858C8.21694 19.5519 8.18608 19.4202 8.13028 19.2981C8.07449 19.176 7.99487 19.0659 7.89596 18.9742C7.79705 18.8824 7.68079 18.8108 7.55382 18.7634C7.42685 18.7159 7.29166 18.6936 7.15596 18.6978C7.02026 18.7019 6.88671 18.7323 6.76294 18.7874C6.63916 18.8424 6.52759 18.921 6.43459 19.0186C6.34163 19.116 6.26908 19.2306 6.22109 19.3558C6.17311 19.4809 6.15062 19.6142 6.15494 19.748C6.15925 19.8817 6.19027 20.0133 6.24623 20.1352C6.30219 20.2571 6.38197 20.3669 6.48102 20.4584Z" fill="white"/>
</svg>
