<svg width="120" height="24" viewBox="0 0 120 24" fill="none" xmlns="http://www.w3.org/2000/svg">
<path d="M0 0.932617H8.79751C10.4732 0.932617 11.73 1.35113 12.661 2.04865C13.685 2.88567 14.2436 4.0947 14.2436 5.58274C14.2436 7.30328 13.5454 8.37281 12.149 9.02383V9.11683C14.0109 9.72135 15.0815 11.3954 15.0815 13.3949C15.0815 15.3015 14.3367 16.7895 13.1265 17.7196C12.1024 18.4636 10.7991 18.7891 9.03025 18.7891H0V0.932617ZM7.91311 7.9078C8.84407 7.9078 9.54228 7.39629 9.54228 6.32676C9.54228 5.30373 8.84406 4.79222 7.86656 4.79222H4.84096V7.8613H7.91311V7.9078ZM8.33204 14.8365C9.40264 14.8365 10.1939 14.1855 10.1939 13.0229C10.1939 11.7674 9.35609 11.2094 8.33204 11.2094H4.88751V14.883H8.33204V14.8365ZM15.8728 0.932617H20.481V18.8356H15.8728V0.932617ZM21.4119 12.4649C21.4119 8.41931 24.0186 5.72224 28.0683 5.72224C32.1179 5.72224 34.678 8.46581 34.678 12.4649C34.678 16.5105 32.1179 19.2076 28.0683 19.2076C24.0186 19.2076 21.4119 16.5105 21.4119 12.4649ZM30.0698 12.4649C30.0698 10.2329 29.3716 8.83782 27.9752 8.83782C26.5787 8.83782 25.9271 10.2329 25.9271 12.4649C25.9271 14.697 26.5787 16.1385 27.9752 16.1385C29.3716 16.092 30.0698 14.697 30.0698 12.4649ZM35.1901 12.4649C35.1901 8.41931 37.7967 5.72224 41.8464 5.72224C45.896 5.72224 48.4096 8.41931 48.4096 12.4649C48.4096 16.5105 45.8495 19.2076 41.7998 19.2076C37.7967 19.2076 35.1901 16.5105 35.1901 12.4649ZM43.8479 12.4649C43.8479 10.2329 43.1497 8.83782 41.7533 8.83782C40.3569 8.83782 39.7052 10.2329 39.7052 12.4649C39.7052 14.697 40.3569 16.1385 41.7533 16.1385C43.1497 16.092 43.8479 14.697 43.8479 12.4649ZM49.3406 6.04775H53.623V7.9543H53.7161C54.5539 6.46626 55.7176 5.67574 57.5795 5.67574C59.2087 5.67574 60.4189 6.46626 61.0241 7.8613H61.1171C62.1412 6.18725 63.4911 5.67574 65.0737 5.67574C68.0528 5.67574 69.3095 7.8613 69.3095 10.7909V18.7891H64.841V11.5814C64.841 10.2794 64.422 9.44234 63.3049 9.44234C62.1877 9.44234 61.6292 10.4654 61.6292 11.8604V18.7891H57.1606V11.5814C57.1606 10.2794 56.7417 9.44234 55.6245 9.44234C54.5074 9.44234 53.9488 10.4654 53.9488 11.8604V18.7891H49.3406V6.04775ZM74.9418 17.115H74.8953V18.7891H70.6129V0.932617H75.0815V7.34978H75.1746C76.0124 6.23376 77.1761 5.62924 78.8053 5.62924C82.0171 5.62924 83.879 8.51231 83.879 12.3719C83.879 16.6965 81.8774 19.2076 78.526 19.2076C77.1296 19.2076 75.6866 18.5566 74.9418 17.115ZM79.2708 12.3254C79.2708 10.2794 78.526 8.93083 77.1761 8.93083C75.7797 8.93083 74.9418 10.2794 74.9418 12.3254C74.9418 14.3715 75.8262 15.72 77.1761 15.72C78.526 15.72 79.2708 14.418 79.2708 12.3254ZM84.391 12.4184C84.391 8.41931 87.0442 5.67574 90.8611 5.67574C92.7696 5.67574 94.2126 6.28026 95.3297 7.34978C96.8192 8.79132 97.4709 11.0234 97.4244 13.6274H88.8596C89.0458 15.2085 89.7905 16.0455 91.1404 16.0455C91.9317 16.0455 92.63 15.6735 92.9092 14.8365H97.2382C96.4934 17.7661 94.2126 19.2076 91.0008 19.2076C87.0442 19.1611 84.391 16.464 84.391 12.4184ZM88.8596 11.0699H92.9558C92.8627 9.53534 92.0248 8.74482 90.9542 8.74482C89.6974 8.69832 88.9992 9.58184 88.8596 11.0699ZM102.498 8.23331H102.591C103.522 6.46626 104.732 5.76874 106.268 5.76874C106.641 5.76874 106.874 5.81524 107.013 5.90825V9.81435H106.92C104.267 9.34934 102.731 10.6049 102.731 13.4879V18.8356H98.2157V6.04775H102.498V8.23331ZM107.479 18.8356H111.808C111.994 19.3936 112.552 19.9051 113.623 19.9051C115.066 19.9051 115.578 19.0216 115.578 17.6731V16.743H115.485C114.787 17.58 113.809 18.1846 112.413 18.1846C109.666 18.1846 107.246 16.1385 107.246 12.1394C107.246 8.46581 109.201 5.62924 112.18 5.62924C113.902 5.62924 114.926 6.32676 115.625 7.39629H115.718V6.00125H120V17.0685C120 19.1146 119.302 20.6956 118.231 21.6257C117.114 22.6022 115.531 23.0207 113.716 23.0207C110.272 23.0672 107.898 21.6722 107.479 18.8356ZM115.764 11.9534C115.764 10.3724 115.019 9.07033 113.716 9.07033C112.459 9.07033 111.668 10.1864 111.668 11.9534C111.668 13.6739 112.459 14.883 113.716 14.883C114.973 14.883 115.764 13.6274 115.764 11.9534Z" fill="white"/>
</svg>
