<svg width="19" height="13" viewBox="0 0 19 13" fill="none" xmlns="http://www.w3.org/2000/svg">
<path fill-rule="evenodd" clip-rule="evenodd" d="M0.164246 1.25C0.164246 0.835786 0.500032 0.5 0.914246 0.5H17.4142C17.8285 0.5 18.1642 0.835786 18.1642 1.25C18.1642 1.66421 17.8285 2 17.4142 2H0.914246C0.500032 2 0.164246 1.66421 0.164246 1.25ZM0.164246 6.5C0.164246 6.08579 0.500032 5.75 0.914246 5.75H17.4142C17.8285 5.75 18.1642 6.08579 18.1642 6.5C18.1642 6.91421 17.8285 7.25 17.4142 7.25H0.914246C0.500032 7.25 0.164246 6.91421 0.164246 6.5ZM0.164246 11.75C0.164246 11.3358 0.500032 11 0.914246 11H17.4142C17.8285 11 18.1642 11.3358 18.1642 11.75C18.1642 12.1642 17.8285 12.5 17.4142 12.5H0.914246C0.500032 12.5 0.164246 12.1642 0.164246 11.75Z" fill="white"/>
</svg>
